<mxfile host="app.diagrams.net" modified="2023-10-10T05:44:45.099Z" agent="Mozilla/5.0 (Windows NT 10.0; Win64; x64) AppleWebKit/537.36 (KHTML, like Gecko) Chrome/117.0.0.0 Safari/537.36 Edg/117.0.2045.60" etag="s2LmAwGaaa0q7MZNSe-0" version="22.0.4" type="device">
  <diagram name="Page-1" id="Qz5qKZv0LaUBiObVCRqI">
    <mxGraphModel dx="3705" dy="1443" grid="1" gridSize="10" guides="1" tooltips="1" connect="1" arrows="1" fold="1" page="1" pageScale="1" pageWidth="1100" pageHeight="1700" math="0" shadow="0">
      <root>
        <mxCell id="0" />
        <mxCell id="1" parent="0" />
        <mxCell id="BWs7uKdw1PxlZdVB7_j8-1" value="Order&lt;br&gt;" style="swimlane;fontStyle=1;align=center;verticalAlign=top;childLayout=stackLayout;horizontal=1;startSize=26;horizontalStack=0;resizeParent=1;resizeParentMax=0;resizeLast=0;collapsible=1;marginBottom=0;whiteSpace=wrap;html=1;" parent="1" vertex="1">
          <mxGeometry x="690" y="260" width="360" height="294" as="geometry">
            <mxRectangle x="340" y="260" width="70" height="30" as="alternateBounds" />
          </mxGeometry>
        </mxCell>
        <mxCell id="BWs7uKdw1PxlZdVB7_j8-6" value="- serviceType: String" style="text;strokeColor=none;fillColor=none;align=left;verticalAlign=top;spacingLeft=4;spacingRight=4;overflow=hidden;rotatable=0;points=[[0,0.5],[1,0.5]];portConstraint=eastwest;whiteSpace=wrap;html=1;" parent="BWs7uKdw1PxlZdVB7_j8-1" vertex="1">
          <mxGeometry y="26" width="360" height="26" as="geometry" />
        </mxCell>
        <mxCell id="BWs7uKdw1PxlZdVB7_j8-2" value="- weight: double" style="text;strokeColor=none;fillColor=none;align=left;verticalAlign=top;spacingLeft=4;spacingRight=4;overflow=hidden;rotatable=0;points=[[0,0.5],[1,0.5]];portConstraint=eastwest;whiteSpace=wrap;html=1;" parent="BWs7uKdw1PxlZdVB7_j8-1" vertex="1">
          <mxGeometry y="52" width="360" height="26" as="geometry" />
        </mxCell>
        <mxCell id="BWs7uKdw1PxlZdVB7_j8-8" value="- totalPrice double" style="text;strokeColor=none;fillColor=none;align=left;verticalAlign=top;spacingLeft=4;spacingRight=4;overflow=hidden;rotatable=0;points=[[0,0.5],[1,0.5]];portConstraint=eastwest;whiteSpace=wrap;html=1;" parent="BWs7uKdw1PxlZdVB7_j8-1" vertex="1">
          <mxGeometry y="78" width="360" height="26" as="geometry" />
        </mxCell>
        <mxCell id="BWs7uKdw1PxlZdVB7_j8-7" value="- orderStatus: boolean" style="text;strokeColor=none;fillColor=none;align=left;verticalAlign=top;spacingLeft=4;spacingRight=4;overflow=hidden;rotatable=0;points=[[0,0.5],[1,0.5]];portConstraint=eastwest;whiteSpace=wrap;html=1;" parent="BWs7uKdw1PxlZdVB7_j8-1" vertex="1">
          <mxGeometry y="104" width="360" height="26" as="geometry" />
        </mxCell>
        <mxCell id="BWs7uKdw1PxlZdVB7_j8-3" value="" style="line;strokeWidth=1;fillColor=none;align=left;verticalAlign=middle;spacingTop=-1;spacingLeft=3;spacingRight=3;rotatable=0;labelPosition=right;points=[];portConstraint=eastwest;strokeColor=inherit;" parent="BWs7uKdw1PxlZdVB7_j8-1" vertex="1">
          <mxGeometry y="130" width="360" height="8" as="geometry" />
        </mxCell>
        <mxCell id="BWs7uKdw1PxlZdVB7_j8-9" value="&lt;u&gt;+ Order(serviceType: String, weight: double, totalPrice: double)&lt;/u&gt;" style="text;strokeColor=none;fillColor=none;align=left;verticalAlign=top;spacingLeft=4;spacingRight=4;overflow=hidden;rotatable=0;points=[[0,0.5],[1,0.5]];portConstraint=eastwest;whiteSpace=wrap;html=1;" parent="BWs7uKdw1PxlZdVB7_j8-1" vertex="1">
          <mxGeometry y="138" width="360" height="26" as="geometry" />
        </mxCell>
        <mxCell id="BWs7uKdw1PxlZdVB7_j8-12" value="+ getServiceType(): String" style="text;strokeColor=none;fillColor=none;align=left;verticalAlign=top;spacingLeft=4;spacingRight=4;overflow=hidden;rotatable=0;points=[[0,0.5],[1,0.5]];portConstraint=eastwest;whiteSpace=wrap;html=1;" parent="BWs7uKdw1PxlZdVB7_j8-1" vertex="1">
          <mxGeometry y="164" width="360" height="26" as="geometry" />
        </mxCell>
        <mxCell id="BWs7uKdw1PxlZdVB7_j8-10" value="+ getWeight(): double" style="text;strokeColor=none;fillColor=none;align=left;verticalAlign=top;spacingLeft=4;spacingRight=4;overflow=hidden;rotatable=0;points=[[0,0.5],[1,0.5]];portConstraint=eastwest;whiteSpace=wrap;html=1;" parent="BWs7uKdw1PxlZdVB7_j8-1" vertex="1">
          <mxGeometry y="190" width="360" height="26" as="geometry" />
        </mxCell>
        <mxCell id="BWs7uKdw1PxlZdVB7_j8-11" value="+ getTotalPrice(): double" style="text;strokeColor=none;fillColor=none;align=left;verticalAlign=top;spacingLeft=4;spacingRight=4;overflow=hidden;rotatable=0;points=[[0,0.5],[1,0.5]];portConstraint=eastwest;whiteSpace=wrap;html=1;" parent="BWs7uKdw1PxlZdVB7_j8-1" vertex="1">
          <mxGeometry y="216" width="360" height="26" as="geometry" />
        </mxCell>
        <mxCell id="BWs7uKdw1PxlZdVB7_j8-13" value="+ isStatus(): boolean" style="text;strokeColor=none;fillColor=none;align=left;verticalAlign=top;spacingLeft=4;spacingRight=4;overflow=hidden;rotatable=0;points=[[0,0.5],[1,0.5]];portConstraint=eastwest;whiteSpace=wrap;html=1;" parent="BWs7uKdw1PxlZdVB7_j8-1" vertex="1">
          <mxGeometry y="242" width="360" height="26" as="geometry" />
        </mxCell>
        <mxCell id="BWs7uKdw1PxlZdVB7_j8-4" value="+ setStatus(orderStatus: boolean)" style="text;strokeColor=none;fillColor=none;align=left;verticalAlign=top;spacingLeft=4;spacingRight=4;overflow=hidden;rotatable=0;points=[[0,0.5],[1,0.5]];portConstraint=eastwest;whiteSpace=wrap;html=1;" parent="BWs7uKdw1PxlZdVB7_j8-1" vertex="1">
          <mxGeometry y="268" width="360" height="26" as="geometry" />
        </mxCell>
        <mxCell id="BWs7uKdw1PxlZdVB7_j8-15" value="Customer" style="swimlane;fontStyle=1;align=center;verticalAlign=top;childLayout=stackLayout;horizontal=1;startSize=26;horizontalStack=0;resizeParent=1;resizeParentMax=0;resizeLast=0;collapsible=1;marginBottom=0;whiteSpace=wrap;html=1;" parent="1" vertex="1">
          <mxGeometry x="160" y="180" width="350" height="294" as="geometry">
            <mxRectangle x="340" y="260" width="70" height="30" as="alternateBounds" />
          </mxGeometry>
        </mxCell>
        <mxCell id="BWs7uKdw1PxlZdVB7_j8-16" value="- name: String" style="text;strokeColor=none;fillColor=none;align=left;verticalAlign=top;spacingLeft=4;spacingRight=4;overflow=hidden;rotatable=0;points=[[0,0.5],[1,0.5]];portConstraint=eastwest;whiteSpace=wrap;html=1;" parent="BWs7uKdw1PxlZdVB7_j8-15" vertex="1">
          <mxGeometry y="26" width="350" height="26" as="geometry" />
        </mxCell>
        <mxCell id="BWs7uKdw1PxlZdVB7_j8-17" value="- phoneNumber: String" style="text;strokeColor=none;fillColor=none;align=left;verticalAlign=top;spacingLeft=4;spacingRight=4;overflow=hidden;rotatable=0;points=[[0,0.5],[1,0.5]];portConstraint=eastwest;whiteSpace=wrap;html=1;" parent="BWs7uKdw1PxlZdVB7_j8-15" vertex="1">
          <mxGeometry y="52" width="350" height="26" as="geometry" />
        </mxCell>
        <mxCell id="BWs7uKdw1PxlZdVB7_j8-18" value="- order: Order" style="text;strokeColor=none;fillColor=none;align=left;verticalAlign=top;spacingLeft=4;spacingRight=4;overflow=hidden;rotatable=0;points=[[0,0.5],[1,0.5]];portConstraint=eastwest;whiteSpace=wrap;html=1;" parent="BWs7uKdw1PxlZdVB7_j8-15" vertex="1">
          <mxGeometry y="78" width="350" height="26" as="geometry" />
        </mxCell>
        <mxCell id="BWs7uKdw1PxlZdVB7_j8-20" value="" style="line;strokeWidth=1;fillColor=none;align=left;verticalAlign=middle;spacingTop=-1;spacingLeft=3;spacingRight=3;rotatable=0;labelPosition=right;points=[];portConstraint=eastwest;strokeColor=inherit;" parent="BWs7uKdw1PxlZdVB7_j8-15" vertex="1">
          <mxGeometry y="104" width="350" height="8" as="geometry" />
        </mxCell>
        <mxCell id="BWs7uKdw1PxlZdVB7_j8-21" value="&lt;u&gt;+ Customer(name: String, phoneNumber: String, order: Order)&lt;/u&gt;" style="text;strokeColor=none;fillColor=none;align=left;verticalAlign=top;spacingLeft=4;spacingRight=4;overflow=hidden;rotatable=0;points=[[0,0.5],[1,0.5]];portConstraint=eastwest;whiteSpace=wrap;html=1;" parent="BWs7uKdw1PxlZdVB7_j8-15" vertex="1">
          <mxGeometry y="112" width="350" height="26" as="geometry" />
        </mxCell>
        <mxCell id="BWs7uKdw1PxlZdVB7_j8-22" value="+ getName(): String" style="text;strokeColor=none;fillColor=none;align=left;verticalAlign=top;spacingLeft=4;spacingRight=4;overflow=hidden;rotatable=0;points=[[0,0.5],[1,0.5]];portConstraint=eastwest;whiteSpace=wrap;html=1;" parent="BWs7uKdw1PxlZdVB7_j8-15" vertex="1">
          <mxGeometry y="138" width="350" height="26" as="geometry" />
        </mxCell>
        <mxCell id="BWs7uKdw1PxlZdVB7_j8-23" value="+ setName(name: String)" style="text;strokeColor=none;fillColor=none;align=left;verticalAlign=top;spacingLeft=4;spacingRight=4;overflow=hidden;rotatable=0;points=[[0,0.5],[1,0.5]];portConstraint=eastwest;whiteSpace=wrap;html=1;" parent="BWs7uKdw1PxlZdVB7_j8-15" vertex="1">
          <mxGeometry y="164" width="350" height="26" as="geometry" />
        </mxCell>
        <mxCell id="BWs7uKdw1PxlZdVB7_j8-24" value="+ getPhoneNumber(): String" style="text;strokeColor=none;fillColor=none;align=left;verticalAlign=top;spacingLeft=4;spacingRight=4;overflow=hidden;rotatable=0;points=[[0,0.5],[1,0.5]];portConstraint=eastwest;whiteSpace=wrap;html=1;" parent="BWs7uKdw1PxlZdVB7_j8-15" vertex="1">
          <mxGeometry y="190" width="350" height="26" as="geometry" />
        </mxCell>
        <mxCell id="BWs7uKdw1PxlZdVB7_j8-25" value="+ setPhoneNumber(phoneNumber: String)" style="text;strokeColor=none;fillColor=none;align=left;verticalAlign=top;spacingLeft=4;spacingRight=4;overflow=hidden;rotatable=0;points=[[0,0.5],[1,0.5]];portConstraint=eastwest;whiteSpace=wrap;html=1;" parent="BWs7uKdw1PxlZdVB7_j8-15" vertex="1">
          <mxGeometry y="216" width="350" height="26" as="geometry" />
        </mxCell>
        <mxCell id="BWs7uKdw1PxlZdVB7_j8-26" value="+ getOrder(): Order" style="text;strokeColor=none;fillColor=none;align=left;verticalAlign=top;spacingLeft=4;spacingRight=4;overflow=hidden;rotatable=0;points=[[0,0.5],[1,0.5]];portConstraint=eastwest;whiteSpace=wrap;html=1;" parent="BWs7uKdw1PxlZdVB7_j8-15" vertex="1">
          <mxGeometry y="242" width="350" height="26" as="geometry" />
        </mxCell>
        <mxCell id="BWs7uKdw1PxlZdVB7_j8-27" value="+ setOrder(order: Order)" style="text;strokeColor=none;fillColor=none;align=left;verticalAlign=top;spacingLeft=4;spacingRight=4;overflow=hidden;rotatable=0;points=[[0,0.5],[1,0.5]];portConstraint=eastwest;whiteSpace=wrap;html=1;" parent="BWs7uKdw1PxlZdVB7_j8-15" vertex="1">
          <mxGeometry y="268" width="350" height="26" as="geometry" />
        </mxCell>
        <mxCell id="BWs7uKdw1PxlZdVB7_j8-28" value="Transaction" style="swimlane;fontStyle=1;align=center;verticalAlign=top;childLayout=stackLayout;horizontal=1;startSize=26;horizontalStack=0;resizeParent=1;resizeParentMax=0;resizeLast=0;collapsible=1;marginBottom=0;whiteSpace=wrap;html=1;" parent="1" vertex="1">
          <mxGeometry x="250" y="554" width="230" height="216" as="geometry">
            <mxRectangle x="340" y="260" width="70" height="30" as="alternateBounds" />
          </mxGeometry>
        </mxCell>
        <mxCell id="BWs7uKdw1PxlZdVB7_j8-29" value="- customer: Customer" style="text;strokeColor=none;fillColor=none;align=left;verticalAlign=top;spacingLeft=4;spacingRight=4;overflow=hidden;rotatable=0;points=[[0,0.5],[1,0.5]];portConstraint=eastwest;whiteSpace=wrap;html=1;" parent="BWs7uKdw1PxlZdVB7_j8-28" vertex="1">
          <mxGeometry y="26" width="230" height="26" as="geometry" />
        </mxCell>
        <mxCell id="BWs7uKdw1PxlZdVB7_j8-30" value="- payStatus: boolean" style="text;strokeColor=none;fillColor=none;align=left;verticalAlign=top;spacingLeft=4;spacingRight=4;overflow=hidden;rotatable=0;points=[[0,0.5],[1,0.5]];portConstraint=eastwest;whiteSpace=wrap;html=1;" parent="BWs7uKdw1PxlZdVB7_j8-28" vertex="1">
          <mxGeometry y="52" width="230" height="26" as="geometry" />
        </mxCell>
        <mxCell id="BWs7uKdw1PxlZdVB7_j8-32" value="" style="line;strokeWidth=1;fillColor=none;align=left;verticalAlign=middle;spacingTop=-1;spacingLeft=3;spacingRight=3;rotatable=0;labelPosition=right;points=[];portConstraint=eastwest;strokeColor=inherit;" parent="BWs7uKdw1PxlZdVB7_j8-28" vertex="1">
          <mxGeometry y="78" width="230" height="8" as="geometry" />
        </mxCell>
        <mxCell id="BWs7uKdw1PxlZdVB7_j8-33" value="&lt;u&gt;+ Transaction(customer: Customer)&lt;/u&gt;" style="text;strokeColor=none;fillColor=none;align=left;verticalAlign=top;spacingLeft=4;spacingRight=4;overflow=hidden;rotatable=0;points=[[0,0.5],[1,0.5]];portConstraint=eastwest;whiteSpace=wrap;html=1;" parent="BWs7uKdw1PxlZdVB7_j8-28" vertex="1">
          <mxGeometry y="86" width="230" height="26" as="geometry" />
        </mxCell>
        <mxCell id="BWs7uKdw1PxlZdVB7_j8-34" value="+ getCustomer(): Customer" style="text;strokeColor=none;fillColor=none;align=left;verticalAlign=top;spacingLeft=4;spacingRight=4;overflow=hidden;rotatable=0;points=[[0,0.5],[1,0.5]];portConstraint=eastwest;whiteSpace=wrap;html=1;" parent="BWs7uKdw1PxlZdVB7_j8-28" vertex="1">
          <mxGeometry y="112" width="230" height="26" as="geometry" />
        </mxCell>
        <mxCell id="BWs7uKdw1PxlZdVB7_j8-35" value="+ countPayment(money: double): double" style="text;strokeColor=none;fillColor=none;align=left;verticalAlign=top;spacingLeft=4;spacingRight=4;overflow=hidden;rotatable=0;points=[[0,0.5],[1,0.5]];portConstraint=eastwest;whiteSpace=wrap;html=1;" parent="BWs7uKdw1PxlZdVB7_j8-28" vertex="1">
          <mxGeometry y="138" width="230" height="26" as="geometry" />
        </mxCell>
        <mxCell id="BWs7uKdw1PxlZdVB7_j8-36" value="+ isStatus(): boolean" style="text;strokeColor=none;fillColor=none;align=left;verticalAlign=top;spacingLeft=4;spacingRight=4;overflow=hidden;rotatable=0;points=[[0,0.5],[1,0.5]];portConstraint=eastwest;whiteSpace=wrap;html=1;" parent="BWs7uKdw1PxlZdVB7_j8-28" vertex="1">
          <mxGeometry y="164" width="230" height="26" as="geometry" />
        </mxCell>
        <mxCell id="BWs7uKdw1PxlZdVB7_j8-37" value="+ setStatus(status: boolean)" style="text;strokeColor=none;fillColor=none;align=left;verticalAlign=top;spacingLeft=4;spacingRight=4;overflow=hidden;rotatable=0;points=[[0,0.5],[1,0.5]];portConstraint=eastwest;whiteSpace=wrap;html=1;" parent="BWs7uKdw1PxlZdVB7_j8-28" vertex="1">
          <mxGeometry y="190" width="230" height="26" as="geometry" />
        </mxCell>
        <mxCell id="BWs7uKdw1PxlZdVB7_j8-40" value="ListTransactions&lt;br&gt;" style="swimlane;fontStyle=1;align=center;verticalAlign=top;childLayout=stackLayout;horizontal=1;startSize=26;horizontalStack=0;resizeParent=1;resizeParentMax=0;resizeLast=0;collapsible=1;marginBottom=0;whiteSpace=wrap;html=1;" parent="1" vertex="1">
          <mxGeometry x="730" y="620" width="240" height="190" as="geometry">
            <mxRectangle x="340" y="260" width="70" height="30" as="alternateBounds" />
          </mxGeometry>
        </mxCell>
        <mxCell id="BWs7uKdw1PxlZdVB7_j8-41" value="- transactionList: ArrayList&amp;lt;Transaction&amp;gt;" style="text;strokeColor=none;fillColor=none;align=left;verticalAlign=top;spacingLeft=4;spacingRight=4;overflow=hidden;rotatable=0;points=[[0,0.5],[1,0.5]];portConstraint=eastwest;whiteSpace=wrap;html=1;" parent="BWs7uKdw1PxlZdVB7_j8-40" vertex="1">
          <mxGeometry y="26" width="240" height="26" as="geometry" />
        </mxCell>
        <mxCell id="BWs7uKdw1PxlZdVB7_j8-45" value="" style="line;strokeWidth=1;fillColor=none;align=left;verticalAlign=middle;spacingTop=-1;spacingLeft=3;spacingRight=3;rotatable=0;labelPosition=right;points=[];portConstraint=eastwest;strokeColor=inherit;" parent="BWs7uKdw1PxlZdVB7_j8-40" vertex="1">
          <mxGeometry y="52" width="240" height="8" as="geometry" />
        </mxCell>
        <mxCell id="BWs7uKdw1PxlZdVB7_j8-46" value="&lt;u&gt;+ ListTransactions()&lt;/u&gt;" style="text;strokeColor=none;fillColor=none;align=left;verticalAlign=top;spacingLeft=4;spacingRight=4;overflow=hidden;rotatable=0;points=[[0,0.5],[1,0.5]];portConstraint=eastwest;whiteSpace=wrap;html=1;" parent="BWs7uKdw1PxlZdVB7_j8-40" vertex="1">
          <mxGeometry y="60" width="240" height="26" as="geometry" />
        </mxCell>
        <mxCell id="BWs7uKdw1PxlZdVB7_j8-47" value="+ addTransaction(transaction: Transaction)" style="text;strokeColor=none;fillColor=none;align=left;verticalAlign=top;spacingLeft=4;spacingRight=4;overflow=hidden;rotatable=0;points=[[0,0.5],[1,0.5]];portConstraint=eastwest;whiteSpace=wrap;html=1;" parent="BWs7uKdw1PxlZdVB7_j8-40" vertex="1">
          <mxGeometry y="86" width="240" height="26" as="geometry" />
        </mxCell>
        <mxCell id="BWs7uKdw1PxlZdVB7_j8-48" value="+ getTransaction(index: int): Transaction" style="text;strokeColor=none;fillColor=none;align=left;verticalAlign=top;spacingLeft=4;spacingRight=4;overflow=hidden;rotatable=0;points=[[0,0.5],[1,0.5]];portConstraint=eastwest;whiteSpace=wrap;html=1;" parent="BWs7uKdw1PxlZdVB7_j8-40" vertex="1">
          <mxGeometry y="112" width="240" height="26" as="geometry" />
        </mxCell>
        <mxCell id="BWs7uKdw1PxlZdVB7_j8-49" value="+&amp;nbsp;getTotalTransactions(): int" style="text;strokeColor=none;fillColor=none;align=left;verticalAlign=top;spacingLeft=4;spacingRight=4;overflow=hidden;rotatable=0;points=[[0,0.5],[1,0.5]];portConstraint=eastwest;whiteSpace=wrap;html=1;" parent="BWs7uKdw1PxlZdVB7_j8-40" vertex="1">
          <mxGeometry y="138" width="240" height="26" as="geometry" />
        </mxCell>
        <mxCell id="BWs7uKdw1PxlZdVB7_j8-50" value="+&amp;nbsp;deleteTransaction(index: int)" style="text;strokeColor=none;fillColor=none;align=left;verticalAlign=top;spacingLeft=4;spacingRight=4;overflow=hidden;rotatable=0;points=[[0,0.5],[1,0.5]];portConstraint=eastwest;whiteSpace=wrap;html=1;" parent="BWs7uKdw1PxlZdVB7_j8-40" vertex="1">
          <mxGeometry y="164" width="240" height="26" as="geometry" />
        </mxCell>
        <mxCell id="BWs7uKdw1PxlZdVB7_j8-61" value="1" style="endArrow=open;html=1;endSize=12;startArrow=diamondThin;startSize=14;startFill=1;edgeStyle=orthogonalEdgeStyle;align=left;verticalAlign=bottom;rounded=0;entryX=0.196;entryY=-0.001;entryDx=0;entryDy=0;entryPerimeter=0;" parent="1" target="BWs7uKdw1PxlZdVB7_j8-1" edge="1">
          <mxGeometry x="-1" y="3" relative="1" as="geometry">
            <mxPoint x="510" y="200" as="sourcePoint" />
            <mxPoint x="410" y="200" as="targetPoint" />
          </mxGeometry>
        </mxCell>
        <mxCell id="BWs7uKdw1PxlZdVB7_j8-62" value="1" style="endArrow=open;html=1;endSize=12;startArrow=diamondThin;startSize=14;startFill=1;edgeStyle=orthogonalEdgeStyle;align=left;verticalAlign=bottom;rounded=0;" parent="1" edge="1">
          <mxGeometry x="-1" y="3" relative="1" as="geometry">
            <mxPoint x="480" y="578" as="sourcePoint" />
            <mxPoint x="510" y="390" as="targetPoint" />
            <Array as="points">
              <mxPoint x="620" y="578" />
              <mxPoint x="620" y="390" />
            </Array>
          </mxGeometry>
        </mxCell>
        <mxCell id="BWs7uKdw1PxlZdVB7_j8-63" value="" style="endArrow=open;endFill=1;endSize=12;html=1;rounded=0;exitX=0;exitY=0;exitDx=0;exitDy=0;entryX=1;entryY=0.5;entryDx=0;entryDy=0;exitPerimeter=0;" parent="1" source="BWs7uKdw1PxlZdVB7_j8-46" target="BWs7uKdw1PxlZdVB7_j8-34" edge="1">
          <mxGeometry width="160" relative="1" as="geometry">
            <mxPoint x="280" y="680" as="sourcePoint" />
            <mxPoint x="440" y="700" as="targetPoint" />
            <Array as="points">
              <mxPoint x="620" y="680" />
            </Array>
          </mxGeometry>
        </mxCell>
        <mxCell id="BWs7uKdw1PxlZdVB7_j8-64" value="MainMenu" style="swimlane;fontStyle=1;align=center;verticalAlign=top;childLayout=stackLayout;horizontal=1;startSize=26;horizontalStack=0;resizeParent=1;resizeParentMax=0;resizeLast=0;collapsible=1;marginBottom=0;whiteSpace=wrap;html=1;" parent="1" vertex="1">
          <mxGeometry x="-620" y="70" width="240" height="164" as="geometry">
            <mxRectangle x="340" y="260" width="70" height="30" as="alternateBounds" />
          </mxGeometry>
        </mxCell>
        <mxCell id="BWs7uKdw1PxlZdVB7_j8-65" value="- listTrans: ListTransactions" style="text;strokeColor=none;fillColor=none;align=left;verticalAlign=top;spacingLeft=4;spacingRight=4;overflow=hidden;rotatable=0;points=[[0,0.5],[1,0.5]];portConstraint=eastwest;whiteSpace=wrap;html=1;" parent="BWs7uKdw1PxlZdVB7_j8-64" vertex="1">
          <mxGeometry y="26" width="240" height="26" as="geometry" />
        </mxCell>
        <mxCell id="BWs7uKdw1PxlZdVB7_j8-68" value="" style="line;strokeWidth=1;fillColor=none;align=left;verticalAlign=middle;spacingTop=-1;spacingLeft=3;spacingRight=3;rotatable=0;labelPosition=right;points=[];portConstraint=eastwest;strokeColor=inherit;" parent="BWs7uKdw1PxlZdVB7_j8-64" vertex="1">
          <mxGeometry y="52" width="240" height="8" as="geometry" />
        </mxCell>
        <mxCell id="BWs7uKdw1PxlZdVB7_j8-69" value="&lt;u&gt;+ MainMenu()&lt;/u&gt;" style="text;strokeColor=none;fillColor=none;align=left;verticalAlign=top;spacingLeft=4;spacingRight=4;overflow=hidden;rotatable=0;points=[[0,0.5],[1,0.5]];portConstraint=eastwest;whiteSpace=wrap;html=1;" parent="BWs7uKdw1PxlZdVB7_j8-64" vertex="1">
          <mxGeometry y="60" width="240" height="26" as="geometry" />
        </mxCell>
        <mxCell id="BWs7uKdw1PxlZdVB7_j8-70" value="+ btn_goToLoginActionPerformed()" style="text;strokeColor=none;fillColor=none;align=left;verticalAlign=top;spacingLeft=4;spacingRight=4;overflow=hidden;rotatable=0;points=[[0,0.5],[1,0.5]];portConstraint=eastwest;whiteSpace=wrap;html=1;" parent="BWs7uKdw1PxlZdVB7_j8-64" vertex="1">
          <mxGeometry y="86" width="240" height="26" as="geometry" />
        </mxCell>
        <mxCell id="BWs7uKdw1PxlZdVB7_j8-71" value="+&amp;nbsp;btn_goToPemesananActionPerformed()" style="text;strokeColor=none;fillColor=none;align=left;verticalAlign=top;spacingLeft=4;spacingRight=4;overflow=hidden;rotatable=0;points=[[0,0.5],[1,0.5]];portConstraint=eastwest;whiteSpace=wrap;html=1;" parent="BWs7uKdw1PxlZdVB7_j8-64" vertex="1">
          <mxGeometry y="112" width="240" height="26" as="geometry" />
        </mxCell>
        <mxCell id="BWs7uKdw1PxlZdVB7_j8-72" value="+&amp;nbsp;btn_goToCekActionPerformed()" style="text;strokeColor=none;fillColor=none;align=left;verticalAlign=top;spacingLeft=4;spacingRight=4;overflow=hidden;rotatable=0;points=[[0,0.5],[1,0.5]];portConstraint=eastwest;whiteSpace=wrap;html=1;" parent="BWs7uKdw1PxlZdVB7_j8-64" vertex="1">
          <mxGeometry y="138" width="240" height="26" as="geometry" />
        </mxCell>
        <mxCell id="BWs7uKdw1PxlZdVB7_j8-192" value="1" style="endArrow=open;html=1;endSize=12;startArrow=diamondThin;startSize=14;startFill=0;edgeStyle=orthogonalEdgeStyle;align=left;verticalAlign=bottom;rounded=0;entryX=0.667;entryY=-0.011;entryDx=0;entryDy=0;entryPerimeter=0;" parent="BWs7uKdw1PxlZdVB7_j8-64" target="BWs7uKdw1PxlZdVB7_j8-104" edge="1">
          <mxGeometry x="-1" y="3" relative="1" as="geometry">
            <mxPoint x="100" y="164" as="sourcePoint" />
            <mxPoint x="260" y="164" as="targetPoint" />
          </mxGeometry>
        </mxCell>
        <mxCell id="BWs7uKdw1PxlZdVB7_j8-76" value="LoginAdmin" style="swimlane;fontStyle=1;align=center;verticalAlign=top;childLayout=stackLayout;horizontal=1;startSize=26;horizontalStack=0;resizeParent=1;resizeParentMax=0;resizeLast=0;collapsible=1;marginBottom=0;whiteSpace=wrap;html=1;" parent="1" vertex="1">
          <mxGeometry x="-1060" y="325" width="240" height="216" as="geometry">
            <mxRectangle x="340" y="260" width="70" height="30" as="alternateBounds" />
          </mxGeometry>
        </mxCell>
        <mxCell id="BWs7uKdw1PxlZdVB7_j8-77" value="- listTrans: ListTransactions" style="text;strokeColor=none;fillColor=none;align=left;verticalAlign=top;spacingLeft=4;spacingRight=4;overflow=hidden;rotatable=0;points=[[0,0.5],[1,0.5]];portConstraint=eastwest;whiteSpace=wrap;html=1;" parent="BWs7uKdw1PxlZdVB7_j8-76" vertex="1">
          <mxGeometry y="26" width="240" height="26" as="geometry" />
        </mxCell>
        <mxCell id="BWs7uKdw1PxlZdVB7_j8-78" value="" style="line;strokeWidth=1;fillColor=none;align=left;verticalAlign=middle;spacingTop=-1;spacingLeft=3;spacingRight=3;rotatable=0;labelPosition=right;points=[];portConstraint=eastwest;strokeColor=inherit;" parent="BWs7uKdw1PxlZdVB7_j8-76" vertex="1">
          <mxGeometry y="52" width="240" height="8" as="geometry" />
        </mxCell>
        <mxCell id="BWs7uKdw1PxlZdVB7_j8-79" value="&lt;u&gt;+ LoginAdmin(listTrans: ListTransactions)&lt;/u&gt;" style="text;strokeColor=none;fillColor=none;align=left;verticalAlign=top;spacingLeft=4;spacingRight=4;overflow=hidden;rotatable=0;points=[[0,0.5],[1,0.5]];portConstraint=eastwest;whiteSpace=wrap;html=1;" parent="BWs7uKdw1PxlZdVB7_j8-76" vertex="1">
          <mxGeometry y="60" width="240" height="26" as="geometry" />
        </mxCell>
        <mxCell id="BWs7uKdw1PxlZdVB7_j8-80" value="-&amp;nbsp;txt_usernameActionPerformed()" style="text;strokeColor=none;fillColor=none;align=left;verticalAlign=top;spacingLeft=4;spacingRight=4;overflow=hidden;rotatable=0;points=[[0,0.5],[1,0.5]];portConstraint=eastwest;whiteSpace=wrap;html=1;" parent="BWs7uKdw1PxlZdVB7_j8-76" vertex="1">
          <mxGeometry y="86" width="240" height="26" as="geometry" />
        </mxCell>
        <mxCell id="BWs7uKdw1PxlZdVB7_j8-81" value="-&amp;nbsp;txt_usernameKeyReleased()" style="text;strokeColor=none;fillColor=none;align=left;verticalAlign=top;spacingLeft=4;spacingRight=4;overflow=hidden;rotatable=0;points=[[0,0.5],[1,0.5]];portConstraint=eastwest;whiteSpace=wrap;html=1;" parent="BWs7uKdw1PxlZdVB7_j8-76" vertex="1">
          <mxGeometry y="112" width="240" height="26" as="geometry" />
        </mxCell>
        <mxCell id="BWs7uKdw1PxlZdVB7_j8-82" value="-&amp;nbsp;btn_loginActionPerformed()" style="text;strokeColor=none;fillColor=none;align=left;verticalAlign=top;spacingLeft=4;spacingRight=4;overflow=hidden;rotatable=0;points=[[0,0.5],[1,0.5]];portConstraint=eastwest;whiteSpace=wrap;html=1;" parent="BWs7uKdw1PxlZdVB7_j8-76" vertex="1">
          <mxGeometry y="138" width="240" height="26" as="geometry" />
        </mxCell>
        <mxCell id="BWs7uKdw1PxlZdVB7_j8-83" value="-&amp;nbsp;txt_passwordActionPerformed" style="text;strokeColor=none;fillColor=none;align=left;verticalAlign=top;spacingLeft=4;spacingRight=4;overflow=hidden;rotatable=0;points=[[0,0.5],[1,0.5]];portConstraint=eastwest;whiteSpace=wrap;html=1;" parent="BWs7uKdw1PxlZdVB7_j8-76" vertex="1">
          <mxGeometry y="164" width="240" height="26" as="geometry" />
        </mxCell>
        <mxCell id="BWs7uKdw1PxlZdVB7_j8-84" value="-&amp;nbsp;btn_backToMainMenuActionPerformed()" style="text;strokeColor=none;fillColor=none;align=left;verticalAlign=top;spacingLeft=4;spacingRight=4;overflow=hidden;rotatable=0;points=[[0,0.5],[1,0.5]];portConstraint=eastwest;whiteSpace=wrap;html=1;" parent="BWs7uKdw1PxlZdVB7_j8-76" vertex="1">
          <mxGeometry y="190" width="240" height="26" as="geometry" />
        </mxCell>
        <mxCell id="BWs7uKdw1PxlZdVB7_j8-85" value="AdminMenu" style="swimlane;fontStyle=1;align=center;verticalAlign=top;childLayout=stackLayout;horizontal=1;startSize=26;horizontalStack=0;resizeParent=1;resizeParentMax=0;resizeLast=0;collapsible=1;marginBottom=0;whiteSpace=wrap;html=1;" parent="1" vertex="1">
          <mxGeometry x="-1060" y="670" width="240" height="190" as="geometry">
            <mxRectangle x="340" y="260" width="70" height="30" as="alternateBounds" />
          </mxGeometry>
        </mxCell>
        <mxCell id="BWs7uKdw1PxlZdVB7_j8-86" value="- listTrans: ListTransactions" style="text;strokeColor=none;fillColor=none;align=left;verticalAlign=top;spacingLeft=4;spacingRight=4;overflow=hidden;rotatable=0;points=[[0,0.5],[1,0.5]];portConstraint=eastwest;whiteSpace=wrap;html=1;" parent="BWs7uKdw1PxlZdVB7_j8-85" vertex="1">
          <mxGeometry y="26" width="240" height="26" as="geometry" />
        </mxCell>
        <mxCell id="BWs7uKdw1PxlZdVB7_j8-87" value="" style="line;strokeWidth=1;fillColor=none;align=left;verticalAlign=middle;spacingTop=-1;spacingLeft=3;spacingRight=3;rotatable=0;labelPosition=right;points=[];portConstraint=eastwest;strokeColor=inherit;" parent="BWs7uKdw1PxlZdVB7_j8-85" vertex="1">
          <mxGeometry y="52" width="240" height="8" as="geometry" />
        </mxCell>
        <mxCell id="BWs7uKdw1PxlZdVB7_j8-88" value="&lt;u&gt;+ AdminMenu(listTrans: ListTransactions)&lt;/u&gt;" style="text;strokeColor=none;fillColor=none;align=left;verticalAlign=top;spacingLeft=4;spacingRight=4;overflow=hidden;rotatable=0;points=[[0,0.5],[1,0.5]];portConstraint=eastwest;whiteSpace=wrap;html=1;" parent="BWs7uKdw1PxlZdVB7_j8-85" vertex="1">
          <mxGeometry y="60" width="240" height="26" as="geometry" />
        </mxCell>
        <mxCell id="BWs7uKdw1PxlZdVB7_j8-89" value="-&amp;nbsp;TableMouseClicked()" style="text;strokeColor=none;fillColor=none;align=left;verticalAlign=top;spacingLeft=4;spacingRight=4;overflow=hidden;rotatable=0;points=[[0,0.5],[1,0.5]];portConstraint=eastwest;whiteSpace=wrap;html=1;" parent="BWs7uKdw1PxlZdVB7_j8-85" vertex="1">
          <mxGeometry y="86" width="240" height="26" as="geometry" />
        </mxCell>
        <mxCell id="BWs7uKdw1PxlZdVB7_j8-90" value="-&amp;nbsp;TableMousePressed" style="text;strokeColor=none;fillColor=none;align=left;verticalAlign=top;spacingLeft=4;spacingRight=4;overflow=hidden;rotatable=0;points=[[0,0.5],[1,0.5]];portConstraint=eastwest;whiteSpace=wrap;html=1;" parent="BWs7uKdw1PxlZdVB7_j8-85" vertex="1">
          <mxGeometry y="112" width="240" height="26" as="geometry" />
        </mxCell>
        <mxCell id="BWs7uKdw1PxlZdVB7_j8-91" value="-&amp;nbsp;bacToMainMenu_btnActionPerformed" style="text;strokeColor=none;fillColor=none;align=left;verticalAlign=top;spacingLeft=4;spacingRight=4;overflow=hidden;rotatable=0;points=[[0,0.5],[1,0.5]];portConstraint=eastwest;whiteSpace=wrap;html=1;" parent="BWs7uKdw1PxlZdVB7_j8-85" vertex="1">
          <mxGeometry y="138" width="240" height="26" as="geometry" />
        </mxCell>
        <mxCell id="BWs7uKdw1PxlZdVB7_j8-92" value="-&amp;nbsp;populateTable()" style="text;strokeColor=none;fillColor=none;align=left;verticalAlign=top;spacingLeft=4;spacingRight=4;overflow=hidden;rotatable=0;points=[[0,0.5],[1,0.5]];portConstraint=eastwest;whiteSpace=wrap;html=1;" parent="BWs7uKdw1PxlZdVB7_j8-85" vertex="1">
          <mxGeometry y="164" width="240" height="26" as="geometry" />
        </mxCell>
        <mxCell id="BWs7uKdw1PxlZdVB7_j8-189" value="1" style="endArrow=open;html=1;endSize=12;startArrow=diamondThin;startSize=14;startFill=0;edgeStyle=orthogonalEdgeStyle;align=left;verticalAlign=bottom;rounded=0;entryX=0.595;entryY=0.011;entryDx=0;entryDy=0;entryPerimeter=0;" parent="BWs7uKdw1PxlZdVB7_j8-85" target="BWs7uKdw1PxlZdVB7_j8-94" edge="1">
          <mxGeometry x="-1" y="3" relative="1" as="geometry">
            <mxPoint x="110" y="190" as="sourcePoint" />
            <mxPoint x="270" y="190" as="targetPoint" />
          </mxGeometry>
        </mxCell>
        <mxCell id="BWs7uKdw1PxlZdVB7_j8-94" value="ReservationDetail" style="swimlane;fontStyle=1;align=center;verticalAlign=top;childLayout=stackLayout;horizontal=1;startSize=26;horizontalStack=0;resizeParent=1;resizeParentMax=0;resizeLast=0;collapsible=1;marginBottom=0;whiteSpace=wrap;html=1;" parent="1" vertex="1">
          <mxGeometry x="-1100" y="960" width="330" height="164" as="geometry">
            <mxRectangle x="340" y="260" width="70" height="30" as="alternateBounds" />
          </mxGeometry>
        </mxCell>
        <mxCell id="BWs7uKdw1PxlZdVB7_j8-95" value="- trans: Transaction" style="text;strokeColor=none;fillColor=none;align=left;verticalAlign=top;spacingLeft=4;spacingRight=4;overflow=hidden;rotatable=0;points=[[0,0.5],[1,0.5]];portConstraint=eastwest;whiteSpace=wrap;html=1;" parent="BWs7uKdw1PxlZdVB7_j8-94" vertex="1">
          <mxGeometry y="26" width="330" height="26" as="geometry" />
        </mxCell>
        <mxCell id="BWs7uKdw1PxlZdVB7_j8-102" value="- admin: AdminMenu&lt;br&gt;" style="text;strokeColor=none;fillColor=none;align=left;verticalAlign=top;spacingLeft=4;spacingRight=4;overflow=hidden;rotatable=0;points=[[0,0.5],[1,0.5]];portConstraint=eastwest;whiteSpace=wrap;html=1;" parent="BWs7uKdw1PxlZdVB7_j8-94" vertex="1">
          <mxGeometry y="52" width="330" height="26" as="geometry" />
        </mxCell>
        <mxCell id="BWs7uKdw1PxlZdVB7_j8-96" value="" style="line;strokeWidth=1;fillColor=none;align=left;verticalAlign=middle;spacingTop=-1;spacingLeft=3;spacingRight=3;rotatable=0;labelPosition=right;points=[];portConstraint=eastwest;strokeColor=inherit;" parent="BWs7uKdw1PxlZdVB7_j8-94" vertex="1">
          <mxGeometry y="78" width="330" height="8" as="geometry" />
        </mxCell>
        <mxCell id="BWs7uKdw1PxlZdVB7_j8-97" value="&lt;u&gt;+ ReservationDetail(trans: Transaction, admin: AdminMenu)&lt;/u&gt;" style="text;strokeColor=none;fillColor=none;align=left;verticalAlign=top;spacingLeft=4;spacingRight=4;overflow=hidden;rotatable=0;points=[[0,0.5],[1,0.5]];portConstraint=eastwest;whiteSpace=wrap;html=1;" parent="BWs7uKdw1PxlZdVB7_j8-94" vertex="1">
          <mxGeometry y="86" width="330" height="26" as="geometry" />
        </mxCell>
        <mxCell id="BWs7uKdw1PxlZdVB7_j8-98" value="-&amp;nbsp;proccess_btnActionPerformed()" style="text;strokeColor=none;fillColor=none;align=left;verticalAlign=top;spacingLeft=4;spacingRight=4;overflow=hidden;rotatable=0;points=[[0,0.5],[1,0.5]];portConstraint=eastwest;whiteSpace=wrap;html=1;" parent="BWs7uKdw1PxlZdVB7_j8-94" vertex="1">
          <mxGeometry y="112" width="330" height="26" as="geometry" />
        </mxCell>
        <mxCell id="BWs7uKdw1PxlZdVB7_j8-99" value="-&amp;nbsp;backToAdminMenu_btnActionPerformed" style="text;strokeColor=none;fillColor=none;align=left;verticalAlign=top;spacingLeft=4;spacingRight=4;overflow=hidden;rotatable=0;points=[[0,0.5],[1,0.5]];portConstraint=eastwest;whiteSpace=wrap;html=1;" parent="BWs7uKdw1PxlZdVB7_j8-94" vertex="1">
          <mxGeometry y="138" width="330" height="26" as="geometry" />
        </mxCell>
        <mxCell id="BWs7uKdw1PxlZdVB7_j8-190" value="1" style="endArrow=open;html=1;endSize=12;startArrow=diamondThin;startSize=14;startFill=1;edgeStyle=orthogonalEdgeStyle;align=left;verticalAlign=bottom;rounded=0;entryX=0.738;entryY=1.038;entryDx=0;entryDy=0;entryPerimeter=0;" parent="BWs7uKdw1PxlZdVB7_j8-94" target="BWs7uKdw1PxlZdVB7_j8-92" edge="1">
          <mxGeometry x="-1" y="3" relative="1" as="geometry">
            <mxPoint x="230" as="sourcePoint" />
            <mxPoint x="390" as="targetPoint" />
          </mxGeometry>
        </mxCell>
        <mxCell id="BWs7uKdw1PxlZdVB7_j8-104" value="CustomerMenu" style="swimlane;fontStyle=1;align=center;verticalAlign=top;childLayout=stackLayout;horizontal=1;startSize=26;horizontalStack=0;resizeParent=1;resizeParentMax=0;resizeLast=0;collapsible=1;marginBottom=0;whiteSpace=wrap;html=1;" parent="1" vertex="1">
          <mxGeometry x="-650" y="310" width="280" height="242" as="geometry">
            <mxRectangle x="340" y="260" width="70" height="30" as="alternateBounds" />
          </mxGeometry>
        </mxCell>
        <mxCell id="BWs7uKdw1PxlZdVB7_j8-105" value="- listTrans: ListTransactions" style="text;strokeColor=none;fillColor=none;align=left;verticalAlign=top;spacingLeft=4;spacingRight=4;overflow=hidden;rotatable=0;points=[[0,0.5],[1,0.5]];portConstraint=eastwest;whiteSpace=wrap;html=1;" parent="BWs7uKdw1PxlZdVB7_j8-104" vertex="1">
          <mxGeometry y="26" width="280" height="26" as="geometry" />
        </mxCell>
        <mxCell id="BWs7uKdw1PxlZdVB7_j8-106" value="" style="line;strokeWidth=1;fillColor=none;align=left;verticalAlign=middle;spacingTop=-1;spacingLeft=3;spacingRight=3;rotatable=0;labelPosition=right;points=[];portConstraint=eastwest;strokeColor=inherit;" parent="BWs7uKdw1PxlZdVB7_j8-104" vertex="1">
          <mxGeometry y="52" width="280" height="8" as="geometry" />
        </mxCell>
        <mxCell id="BWs7uKdw1PxlZdVB7_j8-107" value="&lt;u&gt;+ CustomerMenu()&lt;/u&gt;" style="text;strokeColor=none;fillColor=none;align=left;verticalAlign=top;spacingLeft=4;spacingRight=4;overflow=hidden;rotatable=0;points=[[0,0.5],[1,0.5]];portConstraint=eastwest;whiteSpace=wrap;html=1;" parent="BWs7uKdw1PxlZdVB7_j8-104" vertex="1">
          <mxGeometry y="60" width="280" height="26" as="geometry" />
        </mxCell>
        <mxCell id="BWs7uKdw1PxlZdVB7_j8-108" value="+ setListTransactions(listTrans: ListTransactions)" style="text;strokeColor=none;fillColor=none;align=left;verticalAlign=top;spacingLeft=4;spacingRight=4;overflow=hidden;rotatable=0;points=[[0,0.5],[1,0.5]];portConstraint=eastwest;whiteSpace=wrap;html=1;" parent="BWs7uKdw1PxlZdVB7_j8-104" vertex="1">
          <mxGeometry y="86" width="280" height="26" as="geometry" />
        </mxCell>
        <mxCell id="BWs7uKdw1PxlZdVB7_j8-109" value="-&amp;nbsp;txt_weightActionPerformed()" style="text;strokeColor=none;fillColor=none;align=left;verticalAlign=top;spacingLeft=4;spacingRight=4;overflow=hidden;rotatable=0;points=[[0,0.5],[1,0.5]];portConstraint=eastwest;whiteSpace=wrap;html=1;" parent="BWs7uKdw1PxlZdVB7_j8-104" vertex="1">
          <mxGeometry y="112" width="280" height="26" as="geometry" />
        </mxCell>
        <mxCell id="BWs7uKdw1PxlZdVB7_j8-110" value="-&amp;nbsp;backToMenu_btnActionPerformed()" style="text;strokeColor=none;fillColor=none;align=left;verticalAlign=top;spacingLeft=4;spacingRight=4;overflow=hidden;rotatable=0;points=[[0,0.5],[1,0.5]];portConstraint=eastwest;whiteSpace=wrap;html=1;" parent="BWs7uKdw1PxlZdVB7_j8-104" vertex="1">
          <mxGeometry y="138" width="280" height="26" as="geometry" />
        </mxCell>
        <mxCell id="BWs7uKdw1PxlZdVB7_j8-111" value="-&amp;nbsp;goToValidation_btnActionPerformed" style="text;strokeColor=none;fillColor=none;align=left;verticalAlign=top;spacingLeft=4;spacingRight=4;overflow=hidden;rotatable=0;points=[[0,0.5],[1,0.5]];portConstraint=eastwest;whiteSpace=wrap;html=1;" parent="BWs7uKdw1PxlZdVB7_j8-104" vertex="1">
          <mxGeometry y="164" width="280" height="26" as="geometry" />
        </mxCell>
        <mxCell id="BWs7uKdw1PxlZdVB7_j8-112" value="-&amp;nbsp;type_boxActionPerformed()" style="text;strokeColor=none;fillColor=none;align=left;verticalAlign=top;spacingLeft=4;spacingRight=4;overflow=hidden;rotatable=0;points=[[0,0.5],[1,0.5]];portConstraint=eastwest;whiteSpace=wrap;html=1;" parent="BWs7uKdw1PxlZdVB7_j8-104" vertex="1">
          <mxGeometry y="190" width="280" height="26" as="geometry" />
        </mxCell>
        <mxCell id="BWs7uKdw1PxlZdVB7_j8-113" value="-&amp;nbsp;txt_weightKeyReleased()" style="text;strokeColor=none;fillColor=none;align=left;verticalAlign=top;spacingLeft=4;spacingRight=4;overflow=hidden;rotatable=0;points=[[0,0.5],[1,0.5]];portConstraint=eastwest;whiteSpace=wrap;html=1;" parent="BWs7uKdw1PxlZdVB7_j8-104" vertex="1">
          <mxGeometry y="216" width="280" height="26" as="geometry" />
        </mxCell>
        <mxCell id="BWs7uKdw1PxlZdVB7_j8-195" value="1" style="endArrow=open;html=1;endSize=12;startArrow=diamondThin;startSize=14;startFill=0;edgeStyle=orthogonalEdgeStyle;align=left;verticalAlign=bottom;rounded=0;entryX=0.601;entryY=-0.01;entryDx=0;entryDy=0;entryPerimeter=0;" parent="BWs7uKdw1PxlZdVB7_j8-104" target="BWs7uKdw1PxlZdVB7_j8-114" edge="1">
          <mxGeometry x="-1" y="3" relative="1" as="geometry">
            <mxPoint x="120" y="240.56999999999994" as="sourcePoint" />
            <mxPoint x="280" y="240.56999999999994" as="targetPoint" />
          </mxGeometry>
        </mxCell>
        <mxCell id="BWs7uKdw1PxlZdVB7_j8-114" value="Validation" style="swimlane;fontStyle=1;align=center;verticalAlign=top;childLayout=stackLayout;horizontal=1;startSize=26;horizontalStack=0;resizeParent=1;resizeParentMax=0;resizeLast=0;collapsible=1;marginBottom=0;whiteSpace=wrap;html=1;" parent="1" vertex="1">
          <mxGeometry x="-710" y="640" width="420" height="320" as="geometry">
            <mxRectangle x="340" y="260" width="70" height="30" as="alternateBounds" />
          </mxGeometry>
        </mxCell>
        <mxCell id="BWs7uKdw1PxlZdVB7_j8-196" value="1" style="endArrow=open;html=1;endSize=12;startArrow=diamondThin;startSize=14;startFill=1;edgeStyle=orthogonalEdgeStyle;align=left;verticalAlign=bottom;rounded=0;entryX=0.289;entryY=0.982;entryDx=0;entryDy=0;entryPerimeter=0;" parent="BWs7uKdw1PxlZdVB7_j8-114" target="BWs7uKdw1PxlZdVB7_j8-113" edge="1">
          <mxGeometry x="-1" y="3" relative="1" as="geometry">
            <mxPoint x="120" as="sourcePoint" />
            <mxPoint x="280" as="targetPoint" />
          </mxGeometry>
        </mxCell>
        <mxCell id="BWs7uKdw1PxlZdVB7_j8-115" value="- serviceType: String" style="text;strokeColor=none;fillColor=none;align=left;verticalAlign=top;spacingLeft=4;spacingRight=4;overflow=hidden;rotatable=0;points=[[0,0.5],[1,0.5]];portConstraint=eastwest;whiteSpace=wrap;html=1;" parent="BWs7uKdw1PxlZdVB7_j8-114" vertex="1">
          <mxGeometry y="26" width="420" height="26" as="geometry" />
        </mxCell>
        <mxCell id="BWs7uKdw1PxlZdVB7_j8-124" value="- weight: String" style="text;strokeColor=none;fillColor=none;align=left;verticalAlign=top;spacingLeft=4;spacingRight=4;overflow=hidden;rotatable=0;points=[[0,0.5],[1,0.5]];portConstraint=eastwest;whiteSpace=wrap;html=1;" parent="BWs7uKdw1PxlZdVB7_j8-114" vertex="1">
          <mxGeometry y="52" width="420" height="26" as="geometry" />
        </mxCell>
        <mxCell id="BWs7uKdw1PxlZdVB7_j8-125" value="- totalPrice: double" style="text;strokeColor=none;fillColor=none;align=left;verticalAlign=top;spacingLeft=4;spacingRight=4;overflow=hidden;rotatable=0;points=[[0,0.5],[1,0.5]];portConstraint=eastwest;whiteSpace=wrap;html=1;" parent="BWs7uKdw1PxlZdVB7_j8-114" vertex="1">
          <mxGeometry y="78" width="420" height="26" as="geometry" />
        </mxCell>
        <mxCell id="BWs7uKdw1PxlZdVB7_j8-128" value="- custMen: CustomerMenu" style="text;strokeColor=none;fillColor=none;align=left;verticalAlign=top;spacingLeft=4;spacingRight=4;overflow=hidden;rotatable=0;points=[[0,0.5],[1,0.5]];portConstraint=eastwest;whiteSpace=wrap;html=1;" parent="BWs7uKdw1PxlZdVB7_j8-114" vertex="1">
          <mxGeometry y="104" width="420" height="26" as="geometry" />
        </mxCell>
        <mxCell id="BWs7uKdw1PxlZdVB7_j8-127" value="- listTrans: ListTransactions" style="text;strokeColor=none;fillColor=none;align=left;verticalAlign=top;spacingLeft=4;spacingRight=4;overflow=hidden;rotatable=0;points=[[0,0.5],[1,0.5]];portConstraint=eastwest;whiteSpace=wrap;html=1;" parent="BWs7uKdw1PxlZdVB7_j8-114" vertex="1">
          <mxGeometry y="130" width="420" height="26" as="geometry" />
        </mxCell>
        <mxCell id="BWs7uKdw1PxlZdVB7_j8-116" value="" style="line;strokeWidth=1;fillColor=none;align=left;verticalAlign=middle;spacingTop=-1;spacingLeft=3;spacingRight=3;rotatable=0;labelPosition=right;points=[];portConstraint=eastwest;strokeColor=inherit;" parent="BWs7uKdw1PxlZdVB7_j8-114" vertex="1">
          <mxGeometry y="156" width="420" height="8" as="geometry" />
        </mxCell>
        <mxCell id="BWs7uKdw1PxlZdVB7_j8-117" value="&lt;u&gt;+ Validation(serviceType: String, weight: String, custMen: CustomerMenu)&lt;/u&gt;" style="text;strokeColor=none;fillColor=none;align=left;verticalAlign=top;spacingLeft=4;spacingRight=4;overflow=hidden;rotatable=0;points=[[0,0.5],[1,0.5]];portConstraint=eastwest;whiteSpace=wrap;html=1;" parent="BWs7uKdw1PxlZdVB7_j8-114" vertex="1">
          <mxGeometry y="164" width="420" height="26" as="geometry" />
        </mxCell>
        <mxCell id="BWs7uKdw1PxlZdVB7_j8-118" value="+ setListTransactions(listTrans: ListTransactions)" style="text;strokeColor=none;fillColor=none;align=left;verticalAlign=top;spacingLeft=4;spacingRight=4;overflow=hidden;rotatable=0;points=[[0,0.5],[1,0.5]];portConstraint=eastwest;whiteSpace=wrap;html=1;" parent="BWs7uKdw1PxlZdVB7_j8-114" vertex="1">
          <mxGeometry y="190" width="420" height="26" as="geometry" />
        </mxCell>
        <mxCell id="BWs7uKdw1PxlZdVB7_j8-119" value="-&amp;nbsp;backToReservation_btnActionPerformed()" style="text;strokeColor=none;fillColor=none;align=left;verticalAlign=top;spacingLeft=4;spacingRight=4;overflow=hidden;rotatable=0;points=[[0,0.5],[1,0.5]];portConstraint=eastwest;whiteSpace=wrap;html=1;" parent="BWs7uKdw1PxlZdVB7_j8-114" vertex="1">
          <mxGeometry y="216" width="420" height="26" as="geometry" />
        </mxCell>
        <mxCell id="BWs7uKdw1PxlZdVB7_j8-120" value="-&amp;nbsp;txt_weightActionPerformed()" style="text;strokeColor=none;fillColor=none;align=left;verticalAlign=top;spacingLeft=4;spacingRight=4;overflow=hidden;rotatable=0;points=[[0,0.5],[1,0.5]];portConstraint=eastwest;whiteSpace=wrap;html=1;" parent="BWs7uKdw1PxlZdVB7_j8-114" vertex="1">
          <mxGeometry y="242" width="420" height="26" as="geometry" />
        </mxCell>
        <mxCell id="BWs7uKdw1PxlZdVB7_j8-121" value="-&amp;nbsp;txt_weightKeyReleased()" style="text;strokeColor=none;fillColor=none;align=left;verticalAlign=top;spacingLeft=4;spacingRight=4;overflow=hidden;rotatable=0;points=[[0,0.5],[1,0.5]];portConstraint=eastwest;whiteSpace=wrap;html=1;" parent="BWs7uKdw1PxlZdVB7_j8-114" vertex="1">
          <mxGeometry y="268" width="420" height="26" as="geometry" />
        </mxCell>
        <mxCell id="BWs7uKdw1PxlZdVB7_j8-122" value="-&amp;nbsp;goToPayment_btnActionPerformed()" style="text;strokeColor=none;fillColor=none;align=left;verticalAlign=top;spacingLeft=4;spacingRight=4;overflow=hidden;rotatable=0;points=[[0,0.5],[1,0.5]];portConstraint=eastwest;whiteSpace=wrap;html=1;" parent="BWs7uKdw1PxlZdVB7_j8-114" vertex="1">
          <mxGeometry y="294" width="420" height="26" as="geometry" />
        </mxCell>
        <mxCell id="BWs7uKdw1PxlZdVB7_j8-130" value="Payment" style="swimlane;fontStyle=1;align=center;verticalAlign=top;childLayout=stackLayout;horizontal=1;startSize=26;horizontalStack=0;resizeParent=1;resizeParentMax=0;resizeLast=0;collapsible=1;marginBottom=0;whiteSpace=wrap;html=1;" parent="1" vertex="1">
          <mxGeometry x="-780" y="1190" width="290" height="294" as="geometry">
            <mxRectangle x="340" y="260" width="70" height="30" as="alternateBounds" />
          </mxGeometry>
        </mxCell>
        <mxCell id="BWs7uKdw1PxlZdVB7_j8-140" value="- order: Order" style="text;strokeColor=none;fillColor=none;align=left;verticalAlign=top;spacingLeft=4;spacingRight=4;overflow=hidden;rotatable=0;points=[[0,0.5],[1,0.5]];portConstraint=eastwest;whiteSpace=wrap;html=1;" parent="BWs7uKdw1PxlZdVB7_j8-130" vertex="1">
          <mxGeometry y="26" width="290" height="26" as="geometry" />
        </mxCell>
        <mxCell id="BWs7uKdw1PxlZdVB7_j8-131" value="- listTrans: ListTransactions" style="text;strokeColor=none;fillColor=none;align=left;verticalAlign=top;spacingLeft=4;spacingRight=4;overflow=hidden;rotatable=0;points=[[0,0.5],[1,0.5]];portConstraint=eastwest;whiteSpace=wrap;html=1;" parent="BWs7uKdw1PxlZdVB7_j8-130" vertex="1">
          <mxGeometry y="52" width="290" height="26" as="geometry" />
        </mxCell>
        <mxCell id="BWs7uKdw1PxlZdVB7_j8-132" value="" style="line;strokeWidth=1;fillColor=none;align=left;verticalAlign=middle;spacingTop=-1;spacingLeft=3;spacingRight=3;rotatable=0;labelPosition=right;points=[];portConstraint=eastwest;strokeColor=inherit;" parent="BWs7uKdw1PxlZdVB7_j8-130" vertex="1">
          <mxGeometry y="78" width="290" height="8" as="geometry" />
        </mxCell>
        <mxCell id="BWs7uKdw1PxlZdVB7_j8-133" value="&lt;u&gt;+ Payment(order: Order, listTrans: ListTransactions)&lt;/u&gt;" style="text;strokeColor=none;fillColor=none;align=left;verticalAlign=top;spacingLeft=4;spacingRight=4;overflow=hidden;rotatable=0;points=[[0,0.5],[1,0.5]];portConstraint=eastwest;whiteSpace=wrap;html=1;" parent="BWs7uKdw1PxlZdVB7_j8-130" vertex="1">
          <mxGeometry y="86" width="290" height="26" as="geometry" />
        </mxCell>
        <mxCell id="BWs7uKdw1PxlZdVB7_j8-134" value="-&amp;nbsp;pay_btnActionPerformed()" style="text;strokeColor=none;fillColor=none;align=left;verticalAlign=top;spacingLeft=4;spacingRight=4;overflow=hidden;rotatable=0;points=[[0,0.5],[1,0.5]];portConstraint=eastwest;whiteSpace=wrap;html=1;" parent="BWs7uKdw1PxlZdVB7_j8-130" vertex="1">
          <mxGeometry y="112" width="290" height="26" as="geometry" />
        </mxCell>
        <mxCell id="BWs7uKdw1PxlZdVB7_j8-135" value="-&amp;nbsp;txt_telpActionPerformed()" style="text;strokeColor=none;fillColor=none;align=left;verticalAlign=top;spacingLeft=4;spacingRight=4;overflow=hidden;rotatable=0;points=[[0,0.5],[1,0.5]];portConstraint=eastwest;whiteSpace=wrap;html=1;" parent="BWs7uKdw1PxlZdVB7_j8-130" vertex="1">
          <mxGeometry y="138" width="290" height="26" as="geometry" />
        </mxCell>
        <mxCell id="BWs7uKdw1PxlZdVB7_j8-136" value="-&amp;nbsp;txt_telpKeyReleased()" style="text;strokeColor=none;fillColor=none;align=left;verticalAlign=top;spacingLeft=4;spacingRight=4;overflow=hidden;rotatable=0;points=[[0,0.5],[1,0.5]];portConstraint=eastwest;whiteSpace=wrap;html=1;" parent="BWs7uKdw1PxlZdVB7_j8-130" vertex="1">
          <mxGeometry y="164" width="290" height="26" as="geometry" />
        </mxCell>
        <mxCell id="BWs7uKdw1PxlZdVB7_j8-137" value="-&amp;nbsp;txt_payActionPerformed()" style="text;strokeColor=none;fillColor=none;align=left;verticalAlign=top;spacingLeft=4;spacingRight=4;overflow=hidden;rotatable=0;points=[[0,0.5],[1,0.5]];portConstraint=eastwest;whiteSpace=wrap;html=1;" parent="BWs7uKdw1PxlZdVB7_j8-130" vertex="1">
          <mxGeometry y="190" width="290" height="26" as="geometry" />
        </mxCell>
        <mxCell id="BWs7uKdw1PxlZdVB7_j8-138" value="-&amp;nbsp;txt_payKeyReleased()" style="text;strokeColor=none;fillColor=none;align=left;verticalAlign=top;spacingLeft=4;spacingRight=4;overflow=hidden;rotatable=0;points=[[0,0.5],[1,0.5]];portConstraint=eastwest;whiteSpace=wrap;html=1;" parent="BWs7uKdw1PxlZdVB7_j8-130" vertex="1">
          <mxGeometry y="216" width="290" height="26" as="geometry" />
        </mxCell>
        <mxCell id="BWs7uKdw1PxlZdVB7_j8-139" value="-&amp;nbsp;txt_nameActionPerformed()" style="text;strokeColor=none;fillColor=none;align=left;verticalAlign=top;spacingLeft=4;spacingRight=4;overflow=hidden;rotatable=0;points=[[0,0.5],[1,0.5]];portConstraint=eastwest;whiteSpace=wrap;html=1;" parent="BWs7uKdw1PxlZdVB7_j8-130" vertex="1">
          <mxGeometry y="242" width="290" height="26" as="geometry" />
        </mxCell>
        <mxCell id="BWs7uKdw1PxlZdVB7_j8-141" value="-&amp;nbsp;txt_nameKeyReleased()" style="text;strokeColor=none;fillColor=none;align=left;verticalAlign=top;spacingLeft=4;spacingRight=4;overflow=hidden;rotatable=0;points=[[0,0.5],[1,0.5]];portConstraint=eastwest;whiteSpace=wrap;html=1;" parent="BWs7uKdw1PxlZdVB7_j8-130" vertex="1">
          <mxGeometry y="268" width="290" height="26" as="geometry" />
        </mxCell>
        <mxCell id="BWs7uKdw1PxlZdVB7_j8-142" value="Reservation" style="swimlane;fontStyle=1;align=center;verticalAlign=top;childLayout=stackLayout;horizontal=1;startSize=26;horizontalStack=0;resizeParent=1;resizeParentMax=0;resizeLast=0;collapsible=1;marginBottom=0;whiteSpace=wrap;html=1;" parent="1" vertex="1">
          <mxGeometry x="-430" y="1190" width="320" height="242" as="geometry">
            <mxRectangle x="340" y="260" width="70" height="30" as="alternateBounds" />
          </mxGeometry>
        </mxCell>
        <mxCell id="9pkMURXcey8YKzsm6FiH-8" value="1" style="endArrow=open;html=1;endSize=12;startArrow=diamondThin;startSize=14;startFill=0;edgeStyle=orthogonalEdgeStyle;align=left;verticalAlign=bottom;rounded=0;entryX=0.877;entryY=1.118;entryDx=0;entryDy=0;entryPerimeter=0;" edge="1" parent="BWs7uKdw1PxlZdVB7_j8-142" target="BWs7uKdw1PxlZdVB7_j8-113">
          <mxGeometry x="-1" y="3" relative="1" as="geometry">
            <mxPoint x="190" as="sourcePoint" />
            <mxPoint x="350" as="targetPoint" />
            <Array as="points">
              <mxPoint x="190" y="-570" />
              <mxPoint x="26" y="-570" />
            </Array>
          </mxGeometry>
        </mxCell>
        <mxCell id="BWs7uKdw1PxlZdVB7_j8-143" value="- order: Order" style="text;strokeColor=none;fillColor=none;align=left;verticalAlign=top;spacingLeft=4;spacingRight=4;overflow=hidden;rotatable=0;points=[[0,0.5],[1,0.5]];portConstraint=eastwest;whiteSpace=wrap;html=1;" parent="BWs7uKdw1PxlZdVB7_j8-142" vertex="1">
          <mxGeometry y="26" width="320" height="26" as="geometry" />
        </mxCell>
        <mxCell id="BWs7uKdw1PxlZdVB7_j8-144" value="- listTrans: ListTransactions" style="text;strokeColor=none;fillColor=none;align=left;verticalAlign=top;spacingLeft=4;spacingRight=4;overflow=hidden;rotatable=0;points=[[0,0.5],[1,0.5]];portConstraint=eastwest;whiteSpace=wrap;html=1;" parent="BWs7uKdw1PxlZdVB7_j8-142" vertex="1">
          <mxGeometry y="52" width="320" height="26" as="geometry" />
        </mxCell>
        <mxCell id="BWs7uKdw1PxlZdVB7_j8-145" value="" style="line;strokeWidth=1;fillColor=none;align=left;verticalAlign=middle;spacingTop=-1;spacingLeft=3;spacingRight=3;rotatable=0;labelPosition=right;points=[];portConstraint=eastwest;strokeColor=inherit;" parent="BWs7uKdw1PxlZdVB7_j8-142" vertex="1">
          <mxGeometry y="78" width="320" height="8" as="geometry" />
        </mxCell>
        <mxCell id="BWs7uKdw1PxlZdVB7_j8-146" value="&lt;u&gt;+ Reservation(order: Order, listTrans: ListTransactions)&lt;/u&gt;" style="text;strokeColor=none;fillColor=none;align=left;verticalAlign=top;spacingLeft=4;spacingRight=4;overflow=hidden;rotatable=0;points=[[0,0.5],[1,0.5]];portConstraint=eastwest;whiteSpace=wrap;html=1;" parent="BWs7uKdw1PxlZdVB7_j8-142" vertex="1">
          <mxGeometry y="86" width="320" height="26" as="geometry" />
        </mxCell>
        <mxCell id="BWs7uKdw1PxlZdVB7_j8-147" value="-&amp;nbsp;payLater_btnActionPerformed()" style="text;strokeColor=none;fillColor=none;align=left;verticalAlign=top;spacingLeft=4;spacingRight=4;overflow=hidden;rotatable=0;points=[[0,0.5],[1,0.5]];portConstraint=eastwest;whiteSpace=wrap;html=1;" parent="BWs7uKdw1PxlZdVB7_j8-142" vertex="1">
          <mxGeometry y="112" width="320" height="26" as="geometry" />
        </mxCell>
        <mxCell id="BWs7uKdw1PxlZdVB7_j8-148" value="-&amp;nbsp;txt_telpActionPerformed()" style="text;strokeColor=none;fillColor=none;align=left;verticalAlign=top;spacingLeft=4;spacingRight=4;overflow=hidden;rotatable=0;points=[[0,0.5],[1,0.5]];portConstraint=eastwest;whiteSpace=wrap;html=1;" parent="BWs7uKdw1PxlZdVB7_j8-142" vertex="1">
          <mxGeometry y="138" width="320" height="26" as="geometry" />
        </mxCell>
        <mxCell id="BWs7uKdw1PxlZdVB7_j8-149" value="-&amp;nbsp;txt_telpKeyReleased()" style="text;strokeColor=none;fillColor=none;align=left;verticalAlign=top;spacingLeft=4;spacingRight=4;overflow=hidden;rotatable=0;points=[[0,0.5],[1,0.5]];portConstraint=eastwest;whiteSpace=wrap;html=1;" parent="BWs7uKdw1PxlZdVB7_j8-142" vertex="1">
          <mxGeometry y="164" width="320" height="26" as="geometry" />
        </mxCell>
        <mxCell id="BWs7uKdw1PxlZdVB7_j8-152" value="-&amp;nbsp;txt_nameActionPerformed()" style="text;strokeColor=none;fillColor=none;align=left;verticalAlign=top;spacingLeft=4;spacingRight=4;overflow=hidden;rotatable=0;points=[[0,0.5],[1,0.5]];portConstraint=eastwest;whiteSpace=wrap;html=1;" parent="BWs7uKdw1PxlZdVB7_j8-142" vertex="1">
          <mxGeometry y="190" width="320" height="26" as="geometry" />
        </mxCell>
        <mxCell id="BWs7uKdw1PxlZdVB7_j8-153" value="-&amp;nbsp;txt_nameKeyReleased()" style="text;strokeColor=none;fillColor=none;align=left;verticalAlign=top;spacingLeft=4;spacingRight=4;overflow=hidden;rotatable=0;points=[[0,0.5],[1,0.5]];portConstraint=eastwest;whiteSpace=wrap;html=1;" parent="BWs7uKdw1PxlZdVB7_j8-142" vertex="1">
          <mxGeometry y="216" width="320" height="26" as="geometry" />
        </mxCell>
        <mxCell id="BWs7uKdw1PxlZdVB7_j8-154" value="OrderSearchMenu" style="swimlane;fontStyle=1;align=center;verticalAlign=top;childLayout=stackLayout;horizontal=1;startSize=26;horizontalStack=0;resizeParent=1;resizeParentMax=0;resizeLast=0;collapsible=1;marginBottom=0;whiteSpace=wrap;html=1;" parent="1" vertex="1">
          <mxGeometry x="-250" y="320" width="270" height="242" as="geometry">
            <mxRectangle x="340" y="260" width="70" height="30" as="alternateBounds" />
          </mxGeometry>
        </mxCell>
        <mxCell id="BWs7uKdw1PxlZdVB7_j8-193" value="" style="endArrow=open;endFill=1;endSize=12;html=1;rounded=0;entryX=1;entryY=0.5;entryDx=0;entryDy=0;" parent="BWs7uKdw1PxlZdVB7_j8-154" target="BWs7uKdw1PxlZdVB7_j8-41" edge="1">
          <mxGeometry width="160" relative="1" as="geometry">
            <mxPoint x="-120" y="26" as="sourcePoint" />
            <mxPoint x="1260" y="330" as="targetPoint" />
            <Array as="points">
              <mxPoint x="-40" y="26" />
              <mxPoint x="-40" y="-200" />
              <mxPoint x="910" y="-200" />
              <mxPoint x="910" y="260" />
              <mxPoint x="1260" y="260" />
              <mxPoint x="1260" y="339" />
            </Array>
          </mxGeometry>
        </mxCell>
        <mxCell id="9pkMURXcey8YKzsm6FiH-9" value="1" style="endArrow=open;html=1;endSize=12;startArrow=diamondThin;startSize=14;startFill=1;edgeStyle=orthogonalEdgeStyle;align=left;verticalAlign=bottom;rounded=0;entryX=1;entryY=0.094;entryDx=0;entryDy=0;entryPerimeter=0;" edge="1" parent="BWs7uKdw1PxlZdVB7_j8-154" target="BWs7uKdw1PxlZdVB7_j8-40">
          <mxGeometry x="-1" y="3" relative="1" as="geometry">
            <mxPoint x="130" as="sourcePoint" />
            <mxPoint x="1700" y="-170" as="targetPoint" />
            <Array as="points">
              <mxPoint x="130" y="-160" />
              <mxPoint x="1700" y="-160" />
              <mxPoint x="1700" y="318" />
            </Array>
          </mxGeometry>
        </mxCell>
        <mxCell id="BWs7uKdw1PxlZdVB7_j8-155" value="- listTrans: ListTransactions" style="text;strokeColor=none;fillColor=none;align=left;verticalAlign=top;spacingLeft=4;spacingRight=4;overflow=hidden;rotatable=0;points=[[0,0.5],[1,0.5]];portConstraint=eastwest;whiteSpace=wrap;html=1;" parent="BWs7uKdw1PxlZdVB7_j8-154" vertex="1">
          <mxGeometry y="26" width="270" height="26" as="geometry" />
        </mxCell>
        <mxCell id="BWs7uKdw1PxlZdVB7_j8-156" value="" style="line;strokeWidth=1;fillColor=none;align=left;verticalAlign=middle;spacingTop=-1;spacingLeft=3;spacingRight=3;rotatable=0;labelPosition=right;points=[];portConstraint=eastwest;strokeColor=inherit;" parent="BWs7uKdw1PxlZdVB7_j8-154" vertex="1">
          <mxGeometry y="52" width="270" height="8" as="geometry" />
        </mxCell>
        <mxCell id="BWs7uKdw1PxlZdVB7_j8-157" value="&lt;u&gt;+ OrderSearchMenu(listTrans: ListTransactions)&lt;/u&gt;" style="text;strokeColor=none;fillColor=none;align=left;verticalAlign=top;spacingLeft=4;spacingRight=4;overflow=hidden;rotatable=0;points=[[0,0.5],[1,0.5]];portConstraint=eastwest;whiteSpace=wrap;html=1;" parent="BWs7uKdw1PxlZdVB7_j8-154" vertex="1">
          <mxGeometry y="60" width="270" height="26" as="geometry" />
        </mxCell>
        <mxCell id="BWs7uKdw1PxlZdVB7_j8-158" value="-&amp;nbsp;txt_phoneNumberActionPerformed()" style="text;strokeColor=none;fillColor=none;align=left;verticalAlign=top;spacingLeft=4;spacingRight=4;overflow=hidden;rotatable=0;points=[[0,0.5],[1,0.5]];portConstraint=eastwest;whiteSpace=wrap;html=1;" parent="BWs7uKdw1PxlZdVB7_j8-154" vertex="1">
          <mxGeometry y="86" width="270" height="26" as="geometry" />
        </mxCell>
        <mxCell id="BWs7uKdw1PxlZdVB7_j8-159" value="-&amp;nbsp;txt_phoneNumberKeyReleased()" style="text;strokeColor=none;fillColor=none;align=left;verticalAlign=top;spacingLeft=4;spacingRight=4;overflow=hidden;rotatable=0;points=[[0,0.5],[1,0.5]];portConstraint=eastwest;whiteSpace=wrap;html=1;" parent="BWs7uKdw1PxlZdVB7_j8-154" vertex="1">
          <mxGeometry y="112" width="270" height="26" as="geometry" />
        </mxCell>
        <mxCell id="BWs7uKdw1PxlZdVB7_j8-160" value="-&amp;nbsp;btn_nameActionPerformed()" style="text;strokeColor=none;fillColor=none;align=left;verticalAlign=top;spacingLeft=4;spacingRight=4;overflow=hidden;rotatable=0;points=[[0,0.5],[1,0.5]];portConstraint=eastwest;whiteSpace=wrap;html=1;" parent="BWs7uKdw1PxlZdVB7_j8-154" vertex="1">
          <mxGeometry y="138" width="270" height="26" as="geometry" />
        </mxCell>
        <mxCell id="BWs7uKdw1PxlZdVB7_j8-161" value="-&amp;nbsp;txt_nameActionPerformed" style="text;strokeColor=none;fillColor=none;align=left;verticalAlign=top;spacingLeft=4;spacingRight=4;overflow=hidden;rotatable=0;points=[[0,0.5],[1,0.5]];portConstraint=eastwest;whiteSpace=wrap;html=1;" parent="BWs7uKdw1PxlZdVB7_j8-154" vertex="1">
          <mxGeometry y="164" width="270" height="26" as="geometry" />
        </mxCell>
        <mxCell id="BWs7uKdw1PxlZdVB7_j8-163" value="-&amp;nbsp;btn_goToOrderPickupMenuActionPerformed()" style="text;strokeColor=none;fillColor=none;align=left;verticalAlign=top;spacingLeft=4;spacingRight=4;overflow=hidden;rotatable=0;points=[[0,0.5],[1,0.5]];portConstraint=eastwest;whiteSpace=wrap;html=1;" parent="BWs7uKdw1PxlZdVB7_j8-154" vertex="1">
          <mxGeometry y="190" width="270" height="26" as="geometry" />
        </mxCell>
        <mxCell id="BWs7uKdw1PxlZdVB7_j8-162" value="-&amp;nbsp;btn_backToMainMenuActionPerformed()" style="text;strokeColor=none;fillColor=none;align=left;verticalAlign=top;spacingLeft=4;spacingRight=4;overflow=hidden;rotatable=0;points=[[0,0.5],[1,0.5]];portConstraint=eastwest;whiteSpace=wrap;html=1;" parent="BWs7uKdw1PxlZdVB7_j8-154" vertex="1">
          <mxGeometry y="216" width="270" height="26" as="geometry" />
        </mxCell>
        <mxCell id="BWs7uKdw1PxlZdVB7_j8-164" value="OrderPickupMenu" style="swimlane;fontStyle=1;align=center;verticalAlign=top;childLayout=stackLayout;horizontal=1;startSize=26;horizontalStack=0;resizeParent=1;resizeParentMax=0;resizeLast=0;collapsible=1;marginBottom=0;whiteSpace=wrap;html=1;" parent="1" vertex="1">
          <mxGeometry x="-230" y="620" width="370" height="164" as="geometry">
            <mxRectangle x="340" y="260" width="70" height="30" as="alternateBounds" />
          </mxGeometry>
        </mxCell>
        <mxCell id="BWs7uKdw1PxlZdVB7_j8-165" value="- listTrans: ListTransactions" style="text;strokeColor=none;fillColor=none;align=left;verticalAlign=top;spacingLeft=4;spacingRight=4;overflow=hidden;rotatable=0;points=[[0,0.5],[1,0.5]];portConstraint=eastwest;whiteSpace=wrap;html=1;" parent="BWs7uKdw1PxlZdVB7_j8-164" vertex="1">
          <mxGeometry y="26" width="370" height="26" as="geometry" />
        </mxCell>
        <mxCell id="BWs7uKdw1PxlZdVB7_j8-166" value="- matchedIndex: int" style="text;strokeColor=none;fillColor=none;align=left;verticalAlign=top;spacingLeft=4;spacingRight=4;overflow=hidden;rotatable=0;points=[[0,0.5],[1,0.5]];portConstraint=eastwest;whiteSpace=wrap;html=1;" parent="BWs7uKdw1PxlZdVB7_j8-164" vertex="1">
          <mxGeometry y="52" width="370" height="26" as="geometry" />
        </mxCell>
        <mxCell id="BWs7uKdw1PxlZdVB7_j8-167" value="" style="line;strokeWidth=1;fillColor=none;align=left;verticalAlign=middle;spacingTop=-1;spacingLeft=3;spacingRight=3;rotatable=0;labelPosition=right;points=[];portConstraint=eastwest;strokeColor=inherit;" parent="BWs7uKdw1PxlZdVB7_j8-164" vertex="1">
          <mxGeometry y="78" width="370" height="8" as="geometry" />
        </mxCell>
        <mxCell id="BWs7uKdw1PxlZdVB7_j8-168" value="&lt;u&gt;+ OrderPickupMenu(listTrans: ListTransactions, matchedIndex: int)&lt;/u&gt;" style="text;strokeColor=none;fillColor=none;align=left;verticalAlign=top;spacingLeft=4;spacingRight=4;overflow=hidden;rotatable=0;points=[[0,0.5],[1,0.5]];portConstraint=eastwest;whiteSpace=wrap;html=1;" parent="BWs7uKdw1PxlZdVB7_j8-164" vertex="1">
          <mxGeometry y="86" width="370" height="26" as="geometry" />
        </mxCell>
        <mxCell id="BWs7uKdw1PxlZdVB7_j8-169" value="-&amp;nbsp;proccess_btnActionPerformed()" style="text;strokeColor=none;fillColor=none;align=left;verticalAlign=top;spacingLeft=4;spacingRight=4;overflow=hidden;rotatable=0;points=[[0,0.5],[1,0.5]];portConstraint=eastwest;whiteSpace=wrap;html=1;" parent="BWs7uKdw1PxlZdVB7_j8-164" vertex="1">
          <mxGeometry y="112" width="370" height="26" as="geometry" />
        </mxCell>
        <mxCell id="BWs7uKdw1PxlZdVB7_j8-170" value="-&amp;nbsp;backToAdminMenu_btnActionPerformed" style="text;strokeColor=none;fillColor=none;align=left;verticalAlign=top;spacingLeft=4;spacingRight=4;overflow=hidden;rotatable=0;points=[[0,0.5],[1,0.5]];portConstraint=eastwest;whiteSpace=wrap;html=1;" parent="BWs7uKdw1PxlZdVB7_j8-164" vertex="1">
          <mxGeometry y="138" width="370" height="26" as="geometry" />
        </mxCell>
        <mxCell id="BWs7uKdw1PxlZdVB7_j8-171" value="LastPayment" style="swimlane;fontStyle=1;align=center;verticalAlign=top;childLayout=stackLayout;horizontal=1;startSize=26;horizontalStack=0;resizeParent=1;resizeParentMax=0;resizeLast=0;collapsible=1;marginBottom=0;whiteSpace=wrap;html=1;" parent="1" vertex="1">
          <mxGeometry x="-230" y="840" width="350" height="190" as="geometry">
            <mxRectangle x="340" y="260" width="70" height="30" as="alternateBounds" />
          </mxGeometry>
        </mxCell>
        <mxCell id="BWs7uKdw1PxlZdVB7_j8-172" value="- matchedIndex: int" style="text;strokeColor=none;fillColor=none;align=left;verticalAlign=top;spacingLeft=4;spacingRight=4;overflow=hidden;rotatable=0;points=[[0,0.5],[1,0.5]];portConstraint=eastwest;whiteSpace=wrap;html=1;" parent="BWs7uKdw1PxlZdVB7_j8-171" vertex="1">
          <mxGeometry y="26" width="350" height="26" as="geometry" />
        </mxCell>
        <mxCell id="BWs7uKdw1PxlZdVB7_j8-173" value="- listTrans: ListTransactions" style="text;strokeColor=none;fillColor=none;align=left;verticalAlign=top;spacingLeft=4;spacingRight=4;overflow=hidden;rotatable=0;points=[[0,0.5],[1,0.5]];portConstraint=eastwest;whiteSpace=wrap;html=1;" parent="BWs7uKdw1PxlZdVB7_j8-171" vertex="1">
          <mxGeometry y="52" width="350" height="26" as="geometry" />
        </mxCell>
        <mxCell id="BWs7uKdw1PxlZdVB7_j8-174" value="" style="line;strokeWidth=1;fillColor=none;align=left;verticalAlign=middle;spacingTop=-1;spacingLeft=3;spacingRight=3;rotatable=0;labelPosition=right;points=[];portConstraint=eastwest;strokeColor=inherit;" parent="BWs7uKdw1PxlZdVB7_j8-171" vertex="1">
          <mxGeometry y="78" width="350" height="8" as="geometry" />
        </mxCell>
        <mxCell id="BWs7uKdw1PxlZdVB7_j8-175" value="&lt;u&gt;+ LastPayment(matchedIndex: int, listTrans: ListTransactions)&lt;/u&gt;" style="text;strokeColor=none;fillColor=none;align=left;verticalAlign=top;spacingLeft=4;spacingRight=4;overflow=hidden;rotatable=0;points=[[0,0.5],[1,0.5]];portConstraint=eastwest;whiteSpace=wrap;html=1;" parent="BWs7uKdw1PxlZdVB7_j8-171" vertex="1">
          <mxGeometry y="86" width="350" height="26" as="geometry" />
        </mxCell>
        <mxCell id="BWs7uKdw1PxlZdVB7_j8-176" value="-&amp;nbsp;pay_btnActionPerformed()" style="text;strokeColor=none;fillColor=none;align=left;verticalAlign=top;spacingLeft=4;spacingRight=4;overflow=hidden;rotatable=0;points=[[0,0.5],[1,0.5]];portConstraint=eastwest;whiteSpace=wrap;html=1;" parent="BWs7uKdw1PxlZdVB7_j8-171" vertex="1">
          <mxGeometry y="112" width="350" height="26" as="geometry" />
        </mxCell>
        <mxCell id="BWs7uKdw1PxlZdVB7_j8-179" value="-&amp;nbsp;txt_payActionPerformed()" style="text;strokeColor=none;fillColor=none;align=left;verticalAlign=top;spacingLeft=4;spacingRight=4;overflow=hidden;rotatable=0;points=[[0,0.5],[1,0.5]];portConstraint=eastwest;whiteSpace=wrap;html=1;" parent="BWs7uKdw1PxlZdVB7_j8-171" vertex="1">
          <mxGeometry y="138" width="350" height="26" as="geometry" />
        </mxCell>
        <mxCell id="BWs7uKdw1PxlZdVB7_j8-180" value="-&amp;nbsp;txt_payKeyReleased()" style="text;strokeColor=none;fillColor=none;align=left;verticalAlign=top;spacingLeft=4;spacingRight=4;overflow=hidden;rotatable=0;points=[[0,0.5],[1,0.5]];portConstraint=eastwest;whiteSpace=wrap;html=1;" parent="BWs7uKdw1PxlZdVB7_j8-171" vertex="1">
          <mxGeometry y="164" width="350" height="26" as="geometry" />
        </mxCell>
        <mxCell id="BWs7uKdw1PxlZdVB7_j8-183" value="1" style="endArrow=open;html=1;endSize=12;startArrow=diamondThin;startSize=14;startFill=1;edgeStyle=orthogonalEdgeStyle;align=left;verticalAlign=bottom;rounded=0;entryX=0.007;entryY=0.877;entryDx=0;entryDy=0;entryPerimeter=0;" parent="1" target="BWs7uKdw1PxlZdVB7_j8-46" edge="1">
          <mxGeometry x="-1" y="3" relative="1" as="geometry">
            <mxPoint x="-380" y="80" as="sourcePoint" />
            <mxPoint x="610" y="700" as="targetPoint" />
            <Array as="points">
              <mxPoint x="90" y="80" />
              <mxPoint x="90" y="570" />
              <mxPoint x="200" y="570" />
              <mxPoint x="200" y="820" />
              <mxPoint x="580" y="820" />
              <mxPoint x="580" y="700" />
              <mxPoint x="732" y="700" />
            </Array>
          </mxGeometry>
        </mxCell>
        <mxCell id="BWs7uKdw1PxlZdVB7_j8-184" value="1" style="endArrow=open;html=1;endSize=12;startArrow=diamondThin;startSize=14;startFill=0;edgeStyle=orthogonalEdgeStyle;align=left;verticalAlign=bottom;rounded=0;entryX=0.552;entryY=0.002;entryDx=0;entryDy=0;entryPerimeter=0;" parent="1" target="BWs7uKdw1PxlZdVB7_j8-76" edge="1">
          <mxGeometry x="-1" y="3" relative="1" as="geometry">
            <mxPoint x="-620" y="80" as="sourcePoint" />
            <mxPoint x="-930" y="320" as="targetPoint" />
          </mxGeometry>
        </mxCell>
        <mxCell id="BWs7uKdw1PxlZdVB7_j8-185" value="1" style="endArrow=open;html=1;endSize=12;startArrow=diamondThin;startSize=14;startFill=1;edgeStyle=orthogonalEdgeStyle;align=left;verticalAlign=bottom;rounded=0;entryX=-0.006;entryY=0.107;entryDx=0;entryDy=0;entryPerimeter=0;" parent="1" target="BWs7uKdw1PxlZdVB7_j8-40" edge="1">
          <mxGeometry x="-1" y="3" relative="1" as="geometry">
            <mxPoint x="-820" y="350" as="sourcePoint" />
            <mxPoint x="590" y="640" as="targetPoint" />
            <Array as="points">
              <mxPoint x="-760" y="350" />
              <mxPoint x="-760" y="280" />
              <mxPoint x="50" y="280" />
              <mxPoint x="50" y="520" />
              <mxPoint x="560" y="520" />
              <mxPoint x="560" y="640" />
            </Array>
          </mxGeometry>
        </mxCell>
        <mxCell id="BWs7uKdw1PxlZdVB7_j8-187" value="1" style="endArrow=open;html=1;endSize=12;startArrow=diamondThin;startSize=14;startFill=0;edgeStyle=orthogonalEdgeStyle;align=left;verticalAlign=bottom;rounded=0;entryX=0.542;entryY=-0.016;entryDx=0;entryDy=0;entryPerimeter=0;" parent="1" target="BWs7uKdw1PxlZdVB7_j8-85" edge="1">
          <mxGeometry x="-1" y="3" relative="1" as="geometry">
            <mxPoint x="-960" y="541" as="sourcePoint" />
            <mxPoint x="-800" y="541" as="targetPoint" />
          </mxGeometry>
        </mxCell>
        <mxCell id="BWs7uKdw1PxlZdVB7_j8-188" value="1" style="endArrow=open;html=1;endSize=12;startArrow=diamondThin;startSize=14;startFill=1;edgeStyle=orthogonalEdgeStyle;align=left;verticalAlign=bottom;rounded=0;entryX=0;entryY=0.5;entryDx=0;entryDy=0;" parent="1" target="BWs7uKdw1PxlZdVB7_j8-47" edge="1">
          <mxGeometry x="-1" y="3" relative="1" as="geometry">
            <mxPoint x="-820" y="714.5" as="sourcePoint" />
            <mxPoint x="600" y="720" as="targetPoint" />
            <Array as="points">
              <mxPoint x="-759" y="715" />
              <mxPoint x="-759" y="590" />
              <mxPoint x="180" y="590" />
              <mxPoint x="180" y="840" />
              <mxPoint x="600" y="840" />
              <mxPoint x="600" y="719" />
            </Array>
          </mxGeometry>
        </mxCell>
        <mxCell id="BWs7uKdw1PxlZdVB7_j8-191" value="1" style="endArrow=open;html=1;endSize=12;startArrow=diamondThin;startSize=14;startFill=1;edgeStyle=orthogonalEdgeStyle;align=left;verticalAlign=bottom;rounded=0;entryX=0.145;entryY=0.956;entryDx=0;entryDy=0;entryPerimeter=0;" parent="1" target="BWs7uKdw1PxlZdVB7_j8-37" edge="1">
          <mxGeometry x="-1" y="3" relative="1" as="geometry">
            <mxPoint x="-770" y="990" as="sourcePoint" />
            <mxPoint x="-280" y="1090" as="targetPoint" />
            <Array as="points">
              <mxPoint x="-330" y="990" />
              <mxPoint x="-330" y="1090" />
              <mxPoint x="283" y="1090" />
            </Array>
          </mxGeometry>
        </mxCell>
        <mxCell id="BWs7uKdw1PxlZdVB7_j8-197" value="" style="endArrow=open;endFill=1;endSize=12;html=1;rounded=0;entryX=1.005;entryY=-0.04;entryDx=0;entryDy=0;entryPerimeter=0;" parent="1" target="BWs7uKdw1PxlZdVB7_j8-46" edge="1">
          <mxGeometry width="160" relative="1" as="geometry">
            <mxPoint x="-290" y="680" as="sourcePoint" />
            <mxPoint x="1010" y="760" as="targetPoint" />
            <Array as="points">
              <mxPoint x="-260" y="680" />
              <mxPoint x="-260" y="820" />
              <mxPoint x="150" y="820" />
              <mxPoint x="150" y="870" />
              <mxPoint x="1010" y="870" />
              <mxPoint x="1010" y="679" />
            </Array>
          </mxGeometry>
        </mxCell>
        <mxCell id="BWs7uKdw1PxlZdVB7_j8-198" value="1" style="endArrow=open;html=1;endSize=12;startArrow=diamondThin;startSize=14;startFill=0;edgeStyle=orthogonalEdgeStyle;align=left;verticalAlign=bottom;rounded=0;entryX=0.5;entryY=0;entryDx=0;entryDy=0;" parent="1" target="BWs7uKdw1PxlZdVB7_j8-130" edge="1">
          <mxGeometry x="-1" y="3" relative="1" as="geometry">
            <mxPoint x="-580" y="960" as="sourcePoint" />
            <mxPoint x="-420" y="960" as="targetPoint" />
          </mxGeometry>
        </mxCell>
        <mxCell id="BWs7uKdw1PxlZdVB7_j8-199" value="1" style="endArrow=open;html=1;endSize=12;startArrow=diamondThin;startSize=14;startFill=0;edgeStyle=orthogonalEdgeStyle;align=left;verticalAlign=bottom;rounded=0;entryX=0.031;entryY=0;entryDx=0;entryDy=0;entryPerimeter=0;" parent="1" target="BWs7uKdw1PxlZdVB7_j8-142" edge="1">
          <mxGeometry x="-1" y="3" relative="1" as="geometry">
            <mxPoint x="-530" y="960" as="sourcePoint" />
            <mxPoint x="-420" y="1040" as="targetPoint" />
            <Array as="points">
              <mxPoint x="-530" y="1050" />
              <mxPoint x="-420" y="1050" />
            </Array>
          </mxGeometry>
        </mxCell>
        <mxCell id="BWs7uKdw1PxlZdVB7_j8-200" value="1" style="endArrow=open;html=1;endSize=12;startArrow=diamondThin;startSize=14;startFill=0;edgeStyle=orthogonalEdgeStyle;align=left;verticalAlign=bottom;rounded=0;entryX=1.004;entryY=0.931;entryDx=0;entryDy=0;entryPerimeter=0;" parent="1" target="BWs7uKdw1PxlZdVB7_j8-6" edge="1">
          <mxGeometry x="-1" y="3" relative="1" as="geometry">
            <mxPoint x="-700.03" y="890" as="sourcePoint" />
            <mxPoint x="1060" y="310" as="targetPoint" />
            <Array as="points">
              <mxPoint x="-730" y="890" />
              <mxPoint x="-730" y="1130" />
              <mxPoint x="1090" y="1130" />
              <mxPoint x="1090" y="310" />
            </Array>
          </mxGeometry>
        </mxCell>
        <mxCell id="BWs7uKdw1PxlZdVB7_j8-201" value="1" style="endArrow=open;html=1;endSize=12;startArrow=diamondThin;startSize=14;startFill=1;edgeStyle=orthogonalEdgeStyle;align=left;verticalAlign=bottom;rounded=0;entryX=0.991;entryY=0.025;entryDx=0;entryDy=0;entryPerimeter=0;" parent="1" target="BWs7uKdw1PxlZdVB7_j8-8" edge="1">
          <mxGeometry x="-1" y="3" relative="1" as="geometry">
            <mxPoint x="-780" y="1230" as="sourcePoint" />
            <mxPoint x="1130" y="337.77777777777777" as="targetPoint" />
            <Array as="points">
              <mxPoint x="-880" y="1231" />
              <mxPoint x="-880" y="1150" />
              <mxPoint x="1120" y="1150" />
              <mxPoint x="1120" y="339" />
            </Array>
          </mxGeometry>
        </mxCell>
        <mxCell id="BWs7uKdw1PxlZdVB7_j8-202" value="1" style="endArrow=open;html=1;endSize=12;startArrow=diamondThin;startSize=14;startFill=1;edgeStyle=orthogonalEdgeStyle;align=left;verticalAlign=bottom;rounded=0;entryX=-0.003;entryY=0.644;entryDx=0;entryDy=0;entryPerimeter=0;" parent="1" target="BWs7uKdw1PxlZdVB7_j8-48" edge="1">
          <mxGeometry x="-1" y="3" relative="1" as="geometry">
            <mxPoint x="-780" y="1260" as="sourcePoint" />
            <mxPoint x="680" y="747.8947368421053" as="targetPoint" />
            <Array as="points">
              <mxPoint x="-850" y="1260" />
              <mxPoint x="-850" y="1170" />
              <mxPoint x="660" y="1170" />
              <mxPoint x="660" y="749" />
            </Array>
          </mxGeometry>
        </mxCell>
        <mxCell id="9pkMURXcey8YKzsm6FiH-1" value="1" style="endArrow=open;html=1;endSize=12;startArrow=diamondThin;startSize=14;startFill=0;edgeStyle=orthogonalEdgeStyle;align=left;verticalAlign=bottom;rounded=0;entryX=1;entryY=0.077;entryDx=0;entryDy=0;entryPerimeter=0;" edge="1" parent="1" target="BWs7uKdw1PxlZdVB7_j8-18">
          <mxGeometry x="-1" y="3" relative="1" as="geometry">
            <mxPoint x="-780" y="1310.23" as="sourcePoint" />
            <mxPoint x="520" y="260" as="targetPoint" />
            <Array as="points">
              <mxPoint x="-910" y="1310" />
              <mxPoint x="-910" y="1530" />
              <mxPoint x="640" y="1530" />
              <mxPoint x="640" y="260" />
            </Array>
          </mxGeometry>
        </mxCell>
        <mxCell id="9pkMURXcey8YKzsm6FiH-2" value="1" style="endArrow=open;html=1;endSize=12;startArrow=diamondThin;startSize=14;startFill=0;edgeStyle=orthogonalEdgeStyle;align=left;verticalAlign=bottom;rounded=0;entryX=1;entryY=0.5;entryDx=0;entryDy=0;" edge="1" parent="1" target="BWs7uKdw1PxlZdVB7_j8-29">
          <mxGeometry x="-1" y="3" relative="1" as="geometry">
            <mxPoint x="-780.09" y="1330.23" as="sourcePoint" />
            <mxPoint x="459.91" y="593" as="targetPoint" />
            <Array as="points">
              <mxPoint x="-860" y="1330" />
              <mxPoint x="-860" y="1510" />
              <mxPoint x="530" y="1510" />
              <mxPoint x="530" y="593" />
            </Array>
          </mxGeometry>
        </mxCell>
        <mxCell id="9pkMURXcey8YKzsm6FiH-3" value="1" style="endArrow=open;html=1;endSize=12;startArrow=diamondThin;startSize=14;startFill=0;edgeStyle=orthogonalEdgeStyle;align=left;verticalAlign=bottom;rounded=0;entryX=-0.002;entryY=-0.281;entryDx=0;entryDy=0;entryPerimeter=0;" edge="1" parent="1" target="BWs7uKdw1PxlZdVB7_j8-109">
          <mxGeometry x="-1" y="3" relative="1" as="geometry">
            <mxPoint x="-700" y="1188.33" as="sourcePoint" />
            <mxPoint x="-540" y="1188.33" as="targetPoint" />
            <Array as="points">
              <mxPoint x="-700" y="1040" />
              <mxPoint x="-740" y="1040" />
              <mxPoint x="-740" y="415" />
            </Array>
          </mxGeometry>
        </mxCell>
        <mxCell id="9pkMURXcey8YKzsm6FiH-4" value="1" style="endArrow=open;html=1;endSize=12;startArrow=diamondThin;startSize=14;startFill=1;edgeStyle=orthogonalEdgeStyle;align=left;verticalAlign=bottom;rounded=0;entryX=0.999;entryY=0.197;entryDx=0;entryDy=0;entryPerimeter=0;" edge="1" parent="1" target="BWs7uKdw1PxlZdVB7_j8-7">
          <mxGeometry x="-1" y="3" relative="1" as="geometry">
            <mxPoint x="-110" y="1230" as="sourcePoint" />
            <mxPoint x="1060" y="370" as="targetPoint" />
            <Array as="points">
              <mxPoint x="1240" y="1231" />
              <mxPoint x="1240" y="369" />
            </Array>
          </mxGeometry>
        </mxCell>
        <mxCell id="9pkMURXcey8YKzsm6FiH-5" value="1" style="endArrow=open;html=1;endSize=12;startArrow=diamondThin;startSize=14;startFill=1;edgeStyle=orthogonalEdgeStyle;align=left;verticalAlign=bottom;rounded=0;entryX=0.999;entryY=0.197;entryDx=0;entryDy=0;entryPerimeter=0;" edge="1" parent="1">
          <mxGeometry x="-1" y="3" relative="1" as="geometry">
            <mxPoint x="-110" y="1261" as="sourcePoint" />
            <mxPoint x="1050" y="400" as="targetPoint" />
            <Array as="points">
              <mxPoint x="1200" y="1262" />
              <mxPoint x="1200" y="400" />
            </Array>
          </mxGeometry>
        </mxCell>
        <mxCell id="9pkMURXcey8YKzsm6FiH-6" value="1" style="endArrow=open;html=1;endSize=12;startArrow=diamondThin;startSize=14;startFill=0;edgeStyle=orthogonalEdgeStyle;align=left;verticalAlign=bottom;rounded=0;entryX=0.999;entryY=0.167;entryDx=0;entryDy=0;entryPerimeter=0;" edge="1" parent="1">
          <mxGeometry x="-1" y="3" relative="1" as="geometry">
            <mxPoint x="-110" y="1373.48" as="sourcePoint" />
            <mxPoint x="509.6500000000001" y="226.552" as="targetPoint" />
            <Array as="points">
              <mxPoint x="1380" y="1374" />
              <mxPoint x="1380" y="227" />
            </Array>
          </mxGeometry>
        </mxCell>
        <mxCell id="9pkMURXcey8YKzsm6FiH-7" value="1" style="endArrow=open;html=1;endSize=12;startArrow=diamondThin;startSize=14;startFill=0;edgeStyle=orthogonalEdgeStyle;align=left;verticalAlign=bottom;rounded=0;entryX=0.61;entryY=0.977;entryDx=0;entryDy=0;entryPerimeter=0;" edge="1" parent="1" target="BWs7uKdw1PxlZdVB7_j8-37">
          <mxGeometry x="-1" y="3" relative="1" as="geometry">
            <mxPoint x="-110" y="1410" as="sourcePoint" />
            <mxPoint x="390" y="800" as="targetPoint" />
            <Array as="points">
              <mxPoint x="160" y="1410" />
              <mxPoint x="160" y="1200" />
              <mxPoint x="390" y="1200" />
            </Array>
          </mxGeometry>
        </mxCell>
        <mxCell id="9pkMURXcey8YKzsm6FiH-11" value="1" style="endArrow=open;html=1;endSize=12;startArrow=diamondThin;startSize=14;startFill=0;edgeStyle=orthogonalEdgeStyle;align=left;verticalAlign=bottom;rounded=0;entryX=0.701;entryY=-0.011;entryDx=0;entryDy=0;entryPerimeter=0;" edge="1" parent="1" target="BWs7uKdw1PxlZdVB7_j8-164">
          <mxGeometry x="-1" y="3" relative="1" as="geometry">
            <mxPoint x="-60" y="562" as="sourcePoint" />
            <mxPoint x="100" y="562" as="targetPoint" />
            <Array as="points">
              <mxPoint x="-50" y="562" />
              <mxPoint x="-50" y="600" />
              <mxPoint x="29" y="600" />
            </Array>
          </mxGeometry>
        </mxCell>
        <mxCell id="9pkMURXcey8YKzsm6FiH-12" value="1" style="endArrow=open;html=1;endSize=12;startArrow=diamondThin;startSize=14;startFill=1;edgeStyle=orthogonalEdgeStyle;align=left;verticalAlign=bottom;rounded=0;entryX=0;entryY=0.5;entryDx=0;entryDy=0;" edge="1" parent="1" target="BWs7uKdw1PxlZdVB7_j8-41">
          <mxGeometry x="-1" y="3" relative="1" as="geometry">
            <mxPoint x="140" y="635" as="sourcePoint" />
            <mxPoint x="704.0816326530612" y="660" as="targetPoint" />
            <Array as="points">
              <mxPoint x="210" y="635" />
              <mxPoint x="210" y="800" />
              <mxPoint x="690" y="800" />
              <mxPoint x="690" y="660" />
              <mxPoint x="730" y="660" />
            </Array>
          </mxGeometry>
        </mxCell>
        <mxCell id="9pkMURXcey8YKzsm6FiH-13" value="1" style="endArrow=open;html=1;endSize=12;startArrow=diamondThin;startSize=14;startFill=0;edgeStyle=orthogonalEdgeStyle;align=left;verticalAlign=bottom;rounded=0;entryX=0.78;entryY=0.009;entryDx=0;entryDy=0;entryPerimeter=0;" edge="1" parent="1" target="BWs7uKdw1PxlZdVB7_j8-171">
          <mxGeometry x="-1" y="3" relative="1" as="geometry">
            <mxPoint x="70" y="784" as="sourcePoint" />
            <mxPoint x="230" y="784" as="targetPoint" />
          </mxGeometry>
        </mxCell>
        <mxCell id="9pkMURXcey8YKzsm6FiH-14" value="1" style="endArrow=open;html=1;endSize=12;startArrow=diamondThin;startSize=14;startFill=1;edgeStyle=orthogonalEdgeStyle;align=left;verticalAlign=bottom;rounded=0;entryX=0.514;entryY=1.132;entryDx=0;entryDy=0;entryPerimeter=0;" edge="1" parent="1" target="BWs7uKdw1PxlZdVB7_j8-50">
          <mxGeometry x="-1" y="3" relative="1" as="geometry">
            <mxPoint x="120" y="880" as="sourcePoint" />
            <mxPoint x="280" y="880" as="targetPoint" />
            <Array as="points">
              <mxPoint x="120" y="910" />
              <mxPoint x="853" y="910" />
            </Array>
          </mxGeometry>
        </mxCell>
        <mxCell id="9pkMURXcey8YKzsm6FiH-15" value="1" style="endArrow=open;html=1;endSize=12;startArrow=diamondThin;startSize=14;startFill=0;edgeStyle=orthogonalEdgeStyle;align=left;verticalAlign=bottom;rounded=0;entryX=0.28;entryY=-0.017;entryDx=0;entryDy=0;entryPerimeter=0;" edge="1" parent="1" target="BWs7uKdw1PxlZdVB7_j8-154">
          <mxGeometry x="-1" y="3" relative="1" as="geometry">
            <mxPoint x="-380" y="110" as="sourcePoint" />
            <mxPoint x="-220" y="110" as="targetPoint" />
            <Array as="points">
              <mxPoint x="-174" y="111" />
            </Array>
          </mxGeometry>
        </mxCell>
      </root>
    </mxGraphModel>
  </diagram>
</mxfile>
